<?xml version="1.0" encoding="UTF-8"?>
<svg version="1.1" xmlns="http://www.w3.org/2000/svg" width="512" height="512">
<path d="M0 0 C14.19044825 11.01730635 25.78139295 27.56025168 28.78125 45.58496094 C31.56551314 68.83549169 27.53667584 89.73701697 13.0625 108.37109375 C9.84044399 112.19808123 6.37749433 115.72632814 2.7265625 119.14453125 C-2.29547945 124.54381579 -2.06631149 131.27957607 -2 138.30859375 C-1.9690625 141.58796875 -1.9690625 141.58796875 -1.9375 144.93359375 C2.6825 145.59359375 7.3025 146.25359375 12.0625 146.93359375 C12.7225 144.29359375 13.3825 141.65359375 14.0625 138.93359375 C21.80344086 139.49985634 29.33283631 140.57900296 36.95629883 142.01904297 C38.08943512 142.22894867 39.22257141 142.43885437 40.39004517 142.65512085 C44.10089426 143.34415485 47.81026491 144.04078074 51.51953125 144.73828125 C54.11256965 145.2230985 56.70564375 145.70772481 59.29875183 146.19216919 C64.71676684 147.20534546 70.13385942 148.2233531 75.55053711 149.24365234 C81.80029567 150.42074941 88.05196131 151.58729221 94.30461675 152.74889362 C100.34334163 153.87124691 106.38014129 155.00364343 112.41626549 156.13989639 C114.97576951 156.62039957 117.53581856 157.09800893 120.09641457 157.57265854 C123.67118086 158.23629607 127.24360612 158.91136424 130.81567383 159.58935547 C131.87085709 159.78271484 132.92604034 159.97607422 134.01319885 160.17529297 C141.97134279 161.70523822 147.31769319 163.8069891 153.1340332 169.64868164 C153.60147446 170.11407852 154.06891571 170.5794754 154.55052185 171.05897522 C156.07878946 172.58425812 157.59609929 174.11994653 159.11328125 175.65625 C160.17789706 176.72392654 161.24310736 177.79101058 162.30888367 178.85752869 C164.5332068 181.08643975 166.75254638 183.32015201 168.96801758 185.55786133 C171.81043739 188.42866551 174.66155842 191.29062579 177.51597309 194.14949894 C179.71173239 196.34940886 181.90464613 198.55213544 184.09651756 200.7559185 C185.14745666 201.81255915 186.19886837 202.86872995 187.25075722 203.92442513 C188.71579686 205.39632135 190.17739437 206.87154587 191.63793945 208.34790039 C192.47033646 209.1871254 193.30273346 210.0263504 194.16035461 210.89100647 C197.18608901 214.14014118 197.24592409 216.46742376 197.48828125 220.86328125 C196.86052074 223.91569475 195.44579135 224.95641835 193.0625 226.93359375 C189.93383789 228.0144043 189.93383789 228.0144043 186.28515625 228.8203125 C185.63679306 228.96765335 184.98842987 229.1149942 184.32041931 229.26679993 C182.25808057 229.73203913 180.19193029 230.17675075 178.125 230.62109375 C176.73993609 230.93030753 175.35516626 231.24084173 173.97070312 231.55273438 C168.67901345 232.73801083 163.38019331 233.87005509 158.0625 234.93359375 C157.7325 245.49359375 157.4025 256.05359375 157.0625 266.93359375 C154.4225 266.93359375 151.7825 266.93359375 149.0625 266.93359375 C149.3925 271.55359375 149.7225 276.17359375 150.0625 280.93359375 C150.3925 280.60359375 150.7225 280.27359375 151.0625 279.93359375 C157.69810451 279.00228084 157.69810451 279.00228084 160.94921875 281.22143555 C161.56410156 281.79031494 162.17898438 282.35919434 162.8125 282.9453125 C163.50351807 283.58065918 164.19453613 284.21600586 164.90649414 284.87060547 C168.47932932 288.28929613 172.01310444 291.73970017 175.5 295.24609375 C176.21865234 295.96087891 176.93730469 296.67566406 177.67773438 297.41210938 C178.70157227 298.43788086 178.70157227 298.43788086 179.74609375 299.484375 C180.36025146 300.09966064 180.97440918 300.71494629 181.60717773 301.34887695 C184.20042284 304.17269074 184.62191461 306.87396946 184.62890625 310.69140625 C183.46914723 315.28245229 179.50550285 317.92096625 176.0625 320.93359375 C177.0525 324.56359375 178.0425 328.19359375 179.0625 331.93359375 C179.94292969 331.8871875 180.82335937 331.84078125 181.73046875 331.79296875 C182.89191406 331.756875 184.05335938 331.72078125 185.25 331.68359375 C186.39855469 331.6371875 187.54710937 331.59078125 188.73046875 331.54296875 C192.88384371 332.02988258 194.22195727 332.87697123 197.0625 335.93359375 C197.57018623 338.97741219 197.76514543 341.45399269 197.7265625 344.49609375 C197.73134613 345.32439697 197.73612976 346.1527002 197.74105835 347.00610352 C197.74445533 348.75441389 197.73526682 350.50278795 197.71435547 352.25097656 C197.68758332 354.92527039 197.71410615 357.59536777 197.74609375 360.26953125 C197.74278961 361.97006134 197.73638328 363.67058881 197.7265625 365.37109375 C197.73668365 366.169104 197.74680481 366.96711426 197.75723267 367.78930664 C197.6748331 371.69773151 197.43243379 373.53551913 194.72924805 376.44433594 C191.35453031 378.32896271 189.08993233 378.33874253 185.25 378.18359375 C184.08855469 378.1475 182.92710937 378.11140625 181.73046875 378.07421875 C180.85003906 378.0278125 179.96960938 377.98140625 179.0625 377.93359375 C177.5775 383.37859375 177.5775 383.37859375 176.0625 388.93359375 C177.3825 390.08859375 178.7025 391.24359375 180.0625 392.43359375 C184.68964295 397.11847288 184.68964295 397.11847288 185 400.93359375 C184.51343932 404.35542785 183.33118425 406.11865194 181.0234375 408.65625 C180.39203857 409.35121582 179.76063965 410.04618164 179.11010742 410.76220703 C175.71693593 414.36049811 172.25685765 417.8837367 168.75 421.37109375 C168.03521484 422.08974609 167.32042969 422.80839844 166.58398438 423.54882812 C165.55821289 424.57266602 165.55821289 424.57266602 164.51171875 425.6171875 C163.89643311 426.23134521 163.28114746 426.84550293 162.6472168 427.47827148 C159.82340301 430.07151659 157.12212429 430.49300836 153.3046875 430.5 C148.71364146 429.34024098 146.0751275 425.3765966 143.0625 421.93359375 C139.4325 422.92359375 135.8025 423.91359375 132.0625 424.93359375 C132.10890625 425.81402344 132.1553125 426.69445312 132.203125 427.6015625 C132.23921875 428.76300781 132.2753125 429.92445313 132.3125 431.12109375 C132.35890625 432.26964844 132.4053125 433.41820312 132.453125 434.6015625 C131.96621117 438.75493746 131.11912252 440.09305102 128.0625 442.93359375 C125.01868156 443.44127998 122.54210106 443.63623918 119.5 443.59765625 C118.25754517 443.6048317 118.25754517 443.6048317 116.98999023 443.6121521 C115.24167986 443.61554908 113.4933058 443.60636057 111.74511719 443.58544922 C109.07082336 443.55867707 106.40072598 443.5851999 103.7265625 443.6171875 C102.02603241 443.61388336 100.32550494 443.60747703 98.625 443.59765625 C97.82698975 443.6077774 97.02897949 443.61789856 96.20678711 443.62832642 C92.29836224 443.54592685 90.46057462 443.30352754 87.55175781 440.6003418 C85.66713104 437.22562406 85.65735122 434.96102608 85.8125 431.12109375 C85.84859375 429.95964844 85.8846875 428.79820312 85.921875 427.6015625 C85.96828125 426.72113281 86.0146875 425.84070313 86.0625 424.93359375 C80.6175 423.44859375 80.6175 423.44859375 75.0625 421.93359375 C73.9075 423.25359375 72.7525 424.57359375 71.5625 425.93359375 C66.87762087 430.5607367 66.87762087 430.5607367 63.0625 430.87109375 C56.28429871 430.04671792 52.08374919 424.04379549 47.7265625 419.31640625 C46.82284912 418.36048584 46.82284912 418.36048584 45.90087891 417.38525391 C44.69091913 416.10073618 43.50216062 414.7958568 42.33740234 413.47021484 C39.23241902 410.05052575 39.23241902 410.05052575 34.984375 408.73413086 C32.56919776 408.98675833 32.56919776 408.98675833 29.0625 409.93359375 C28.299375 410.03800781 27.53625 410.14242188 26.75 410.25 C26.193125 410.33121094 25.63625 410.41242188 25.0625 410.49609375 C24.0725 410.64046875 23.0825 410.78484375 22.0625 410.93359375 C22.3925 413.57359375 22.7225 416.21359375 23.0625 418.93359375 C16.16759587 421.3272033 9.23283442 423.27563298 2.16015625 425.0703125 C1.04241318 425.35461624 -0.0753299 425.63891998 -1.22694397 425.93183899 C-3.57876751 426.5279336 -5.93110827 427.12199093 -8.28393555 427.71411133 C-11.86338928 428.61816127 -15.43842583 429.53845617 -19.01367188 430.45898438 C-21.30964066 431.03877184 -23.60585685 431.61758066 -25.90234375 432.1953125 C-26.95993393 432.47026047 -28.01752411 432.74520844 -29.10716248 433.02848816 C-30.11843704 433.27907486 -31.12971161 433.52966156 -32.17163086 433.7878418 C-33.48326454 434.12068428 -33.48326454 434.12068428 -34.82139587 434.46025085 C-45.79658937 436.12740627 -55.65722472 433.35368844 -66.23535156 430.66674805 C-68.07903875 430.20757876 -69.92297914 429.7494251 -71.76715088 429.29220581 C-76.75301986 428.05283809 -81.73509973 426.79883621 -86.71651936 425.54172111 C-91.93815543 424.22623132 -97.16285682 422.92302332 -102.387146 421.61811829 C-111.15500284 419.42612732 -119.92049844 417.22489469 -128.68457031 415.01782227 C-138.81222579 412.46744612 -148.94313392 409.93034643 -159.07596612 407.40062207 C-168.83480264 404.96406644 -178.59161012 402.51948568 -188.34740448 400.0707798 C-192.49498984 399.02979978 -196.64320541 397.99138718 -200.79193878 396.95499229 C-205.67573142 395.73448391 -210.55768637 394.50687709 -215.43831635 393.27378464 C-217.22835427 392.82269757 -219.01899401 392.37399094 -220.81027222 391.92785454 C-223.25723185 391.31797527 -225.70184245 390.69943353 -228.14605713 390.07865906 C-229.20685718 389.81745499 -229.20685718 389.81745499 -230.28908753 389.55097407 C-234.47742624 388.47518143 -238.19026923 387.10280208 -241.9375 384.93359375 C-243.2903092 382.22797534 -243.07777126 380.10493263 -243.09571838 377.07443237 C-243.1055072 375.82638824 -243.11529602 374.57834412 -243.12538147 373.29248047 C-243.13128604 371.90185585 -243.13709646 370.51123083 -243.14282227 369.12060547 C-243.15239823 367.66219808 -243.16240814 366.20379349 -243.17282104 364.74539185 C-243.19990672 360.77871246 -243.22089641 356.81202114 -243.24082303 352.8453002 C-243.26266003 348.70260016 -243.29005988 344.55993709 -243.31687927 340.41726685 C-243.36683713 332.5691753 -243.41176446 324.72106327 -243.45490164 316.8729316 C-243.50424761 307.93953626 -243.55917551 299.00617801 -243.61458123 290.07281852 C-243.72844875 271.69311134 -243.83527738 253.31336919 -243.9375 234.93359375 C-244.97680664 234.71219727 -246.01611328 234.49080078 -247.08691406 234.26269531 C-250.95175792 233.4352663 -254.81209283 232.5882593 -258.67138672 231.73535156 C-260.34047284 231.36933811 -262.01072593 231.00860386 -263.68212891 230.65332031 C-266.08824703 230.14089301 -268.48949153 229.60945535 -270.890625 229.07421875 C-271.63556213 228.91987366 -272.38049927 228.76552856 -273.14801025 228.60650635 C-277.50512886 227.61204336 -280.25872545 226.58739467 -282.9375 222.93359375 C-283.54488768 219.62057005 -283.78081106 218.06630147 -282.9375 214.93359375 C-281.68147278 213.1230011 -281.68147278 213.1230011 -280.00317383 211.2980957 C-279.36634674 210.60213287 -278.72951965 209.90617004 -278.07339478 209.18911743 C-271.33718459 202.07562019 -264.47885592 195.08579468 -257.5871582 188.12329102 C-255.60820903 186.12198913 -253.63951371 184.11135943 -251.67895508 182.09204102 C-248.83057033 179.15854613 -245.95370845 176.25453555 -243.07421875 173.3515625 C-242.20721848 172.45157028 -241.3402182 171.55157806 -240.44694519 170.62431335 C-239.19063042 169.37204704 -239.19063042 169.37204704 -237.90893555 168.09448242 C-237.18836472 167.36138351 -236.46779388 166.62828461 -235.72538757 165.87297058 C-228.69957522 160.98550746 -219.31272276 160.09365748 -211.04956055 158.57348633 C-209.90521042 158.3584697 -208.76086029 158.14345306 -207.58183289 157.92192078 C-203.83028905 157.21854562 -200.07732735 156.52309835 -196.32421875 155.828125 C-193.70483419 155.33951653 -191.0855157 154.85056456 -188.46626282 154.36125183 C-182.9924652 153.33958224 -177.51785221 152.32237774 -172.04272461 151.30786133 C-165.72036106 150.13629774 -159.39936528 148.95756777 -153.07904214 147.77504998 C-146.98012606 146.63413179 -140.88027203 145.49830677 -134.7799778 144.36478233 C-132.19095017 143.88321578 -129.60216123 143.40036412 -127.01361656 142.91620827 C-123.40269989 142.24157879 -119.79075481 141.57275957 -116.1784668 140.90551758 C-115.10876648 140.70451447 -114.03906616 140.50351135 -112.93695068 140.29641724 C-111.95165878 140.11564133 -110.96636688 139.93486542 -109.95121765 139.74861145 C-109.09864223 139.59027234 -108.2460668 139.43193323 -107.36765575 139.26879597 C-104.86011013 138.92291902 -102.46548858 138.87470337 -99.9375 138.93359375 C-99.2775 141.57359375 -98.6175 144.21359375 -97.9375 146.93359375 C-92.9875 146.60359375 -88.0375 146.27359375 -82.9375 145.93359375 C-83.16628942 142.55593937 -83.41967493 139.18318964 -83.6875 135.80859375 C-83.749375 134.85726562 -83.81125 133.9059375 -83.875 132.92578125 C-84.54675558 124.86471429 -87.03339605 120.43563588 -93.0625 114.99609375 C-106.91448768 101.39554479 -115.0379659 83.44317229 -115.31811523 64.01489258 C-115.27797993 41.09763121 -109.21498421 22.44163723 -92.9375 5.93359375 C-67.65564362 -18.37588353 -28.16297707 -19.81145594 0 0 Z " fill="#0E1214" transform="translate(298.9375,53.06640625)"/>
<path d="M0 0 C14.19044825 11.01730635 25.78139295 27.56025168 28.78125 45.58496094 C31.56551314 68.83549169 27.53667584 89.73701697 13.0625 108.37109375 C9.84044399 112.19808123 6.37749433 115.72632814 2.7265625 119.14453125 C-2.29547945 124.54381579 -2.06631149 131.27957607 -2 138.30859375 C-1.9690625 141.58796875 -1.9690625 141.58796875 -1.9375 144.93359375 C2.6825 145.92359375 7.3025 146.91359375 12.0625 147.93359375 C12.0625 150.24359375 12.0625 152.55359375 12.0625 154.93359375 C13.10857422 155.06314453 13.10857422 155.06314453 14.17578125 155.1953125 C27.22533562 156.93206638 40.13159491 159.48654032 53.0625 161.93359375 C54.96613145 162.29174311 56.86977624 162.64982161 58.7734375 163.0078125 C70.55371256 165.23095518 82.31154929 167.56068426 94.0625 169.93359375 C91.51219581 172.48389794 90.03746153 172.44684385 86.4921875 172.9765625 C85.3074585 173.15936768 84.12272949 173.34217285 82.90209961 173.53051758 C82.25997528 173.62603912 81.61785095 173.72156067 80.95626831 173.81997681 C77.42493566 174.34670595 73.89828597 174.90336507 70.37109375 175.45703125 C69.24070427 175.63360008 69.24070427 175.63360008 68.08747864 175.81373596 C59.37282607 177.1833147 50.68680295 178.71126328 42 180.24609375 C39.48698527 180.68944881 36.97394893 181.13268117 34.46090698 181.57588196 C32.7300257 181.88114447 30.99917067 182.18655583 29.26834106 182.49211121 C22.44074628 183.69565273 15.60959818 184.87791618 8.77734375 186.0546875 C6.70124606 186.41296288 4.62515553 186.77127972 2.54907227 187.12963867 C-0.47004939 187.65074193 -3.48929355 188.17105237 -6.50906372 188.68838501 C-9.31118174 189.16859083 -12.11279654 189.65156825 -14.9140625 190.13671875 C-15.79249313 190.2886821 -16.67092377 190.44064545 -17.57597351 190.59721375 C-22.67725879 191.49380181 -27.72241036 192.52226432 -32.7734375 193.66796875 C-42.29096772 195.72860911 -49.93572863 194.58924853 -59.43615723 192.82769775 C-62.41297463 192.27596373 -65.39261868 191.74020675 -68.37207031 191.20291138 C-69.99330995 190.91032262 -71.61440048 190.61690656 -73.23535156 190.32272339 C-82.24968617 188.68815406 -91.27577935 187.12246257 -100.3026123 185.55865479 C-103.197046 185.05693906 -106.09123449 184.55383167 -108.98535156 184.05029297 C-118.18605504 182.44987488 -127.3876157 180.85463545 -136.59118652 179.27078247 C-140.81540967 178.543524 -145.03925273 177.81407222 -149.26306152 177.08441162 C-151.27694988 176.73715474 -153.29102564 176.39098277 -155.30529785 176.04595947 C-158.10765087 175.56589359 -160.90934692 175.0821488 -163.7109375 174.59765625 C-164.93914719 174.3887677 -164.93914719 174.3887677 -166.19216919 174.17565918 C-171.1762214 173.30916085 -176.04304039 172.21462832 -180.9375 170.93359375 C-177.02999442 168.54407426 -172.7012827 167.98854909 -168.265625 167.19921875 C-167.40258255 167.04052307 -166.5395401 166.88182739 -165.65034485 166.71832275 C-162.83040436 166.20104802 -160.00900833 165.6922406 -157.1875 165.18359375 C-155.2459026 164.82937721 -153.30441552 164.47455544 -151.36303711 164.11914062 C-148.41609096 163.57976658 -145.4690624 163.04089257 -142.52159119 162.50439453 C-136.38060796 161.38593927 -130.24480862 160.24336353 -124.11328125 159.07421875 C-123.36913971 158.93268372 -122.62499817 158.79114868 -121.85830688 158.64532471 C-119.05921621 158.11273412 -116.26017136 157.57999948 -113.46228027 157.0411377 C-111.58093972 156.67914912 -109.69869433 156.32187259 -107.81640625 155.96484375 C-106.7704126 155.76439453 -105.72441895 155.56394531 -104.64672852 155.35742188 C-101.9375 154.93359375 -101.9375 154.93359375 -97.9375 154.93359375 C-97.9375 152.62359375 -97.9375 150.31359375 -97.9375 147.93359375 C-96.56455778 147.59188369 -95.18899882 147.26068258 -93.8125 146.93359375 C-93.04679687 146.74796875 -92.28109375 146.56234375 -91.4921875 146.37109375 C-88.60276648 145.87626935 -85.86352801 145.86574383 -82.9375 145.93359375 C-83.1588875 142.55608442 -83.41971252 139.18271603 -83.6875 135.80859375 C-83.749375 134.85726562 -83.81125 133.9059375 -83.875 132.92578125 C-84.54675558 124.86471429 -87.03339605 120.43563588 -93.0625 114.99609375 C-106.91448768 101.39554479 -115.0379659 83.44317229 -115.31811523 64.01489258 C-115.27797993 41.09763121 -109.21498421 22.44163723 -92.9375 5.93359375 C-67.65564362 -18.37588353 -28.16297707 -19.81145594 0 0 Z " fill="#010101" transform="translate(298.9375,53.06640625)"/>
<path d="M0 0 C0.33 0 0.66 0 1 0 C1 63.36 1 126.72 1 192 C-11 189 -23 186 -35 183 C-35.98886703 182.75278702 -35.98886703 182.75278702 -36.99771118 182.50057983 C-38.33867869 182.16533285 -39.67964138 181.83006656 -41.02059937 181.49478149 C-44.23709179 180.69057318 -47.45367119 179.886718 -50.67041016 179.08349609 C-57.71957178 177.32281467 -64.76722621 175.55629578 -71.81341553 173.78375244 C-76.20711196 172.67891652 -80.60133294 171.57617493 -84.99560547 170.47363281 C-87.23084787 169.91231923 -89.46587771 169.3501584 -91.70068359 168.78710938 C-105.13193996 165.40404112 -118.58202691 162.14861105 -132.08551025 159.06600952 C-139.81666502 157.29373142 -147.48305342 155.37775768 -155.125 153.25 C-157.23160279 152.67126297 -159.33836957 152.0931225 -161.4453125 151.515625 C-162.76813232 151.14872559 -162.76813232 151.14872559 -164.11767578 150.77441406 C-167.73293506 149.80307725 -171.36829713 148.90792572 -175 148 C-175 103.45 -175 58.9 -175 13 C-169.19375071 13.64513881 -163.96142258 14.32637895 -158.328125 15.56640625 C-157.6205455 15.7207312 -156.912966 15.87505615 -156.1839447 16.03405762 C-153.87168317 16.53932325 -151.56087242 17.0509224 -149.25 17.5625 C-147.60858533 17.92227535 -145.96706297 18.28155968 -144.32543945 18.64038086 C-140.91592883 19.38599272 -137.5068895 20.13370847 -134.09814453 20.8828125 C-126.90057147 22.46255489 -119.69667831 24.0129038 -112.49316406 25.5652771 C-100.59426479 28.13130799 -88.69794725 30.70957634 -76.80487061 33.30245972 C-75.44518313 33.59859268 -74.0853623 33.89411404 -72.72540283 34.18899536 C-66.64826959 35.50685694 -60.57783763 36.82658784 -54.55078125 38.359375 C-53.38240723 38.65376465 -53.38240723 38.65376465 -52.19042969 38.95410156 C-50.28061053 39.44404599 -48.37622475 39.95505578 -46.47265625 40.46875 C-41.52831121 41.22514024 -36.50574948 41.82702845 -32.25952148 38.73095703 C-30.59640244 37.00668434 -29.14054581 35.21697752 -27.6875 33.3125 C-26.5718893 31.93857897 -25.45599732 30.56488629 -24.33984375 29.19140625 C-23.78538574 28.49160645 -23.23092773 27.79180664 -22.65966797 27.07080078 C-20.10935736 23.88872744 -17.42580731 20.82644684 -14.75 17.75 C-10.27740136 12.55253193 -5.92733105 7.26949144 -1.64453125 1.9140625 C-0.83048828 0.96660156 -0.83048828 0.96660156 0 0 Z " fill="#32C846" transform="translate(247,278)"/>
<path d="M0 0 C7.38863659 7.38863659 14.15954297 15.14272262 20.734375 23.2578125 C23.72430876 26.87666336 26.82910241 30.37443999 30.0078125 33.828125 C31.17792402 35.10377599 32.32863 36.39866591 33.4296875 37.734375 C35.55750905 40.20987981 36.66564497 40.9690821 39.95703125 41.2734375 C45.12997053 41.12254898 50.06136362 39.73383427 55.0625 38.5 C66.23528838 35.82980941 77.44128582 33.39949812 88.6875 31.0625 C100.40037755 28.62377563 112.0880508 26.10982534 123.75 23.4375 C135.05836603 20.85153894 146.39010835 18.41035742 157.75 16.0625 C158.49890503 15.90675507 159.24781006 15.75101013 160.01940918 15.59054565 C162.13204298 15.15198682 164.24551257 14.7177495 166.359375 14.28515625 C168.17646973 13.91209351 168.17646973 13.91209351 170.03027344 13.53149414 C173 13 173 13 176 13 C176 22.57 176 32.14 176 42 C178.64 42 181.28 42 184 42 C184.13548815 44.73083902 184.23429855 47.45491807 184.3125 50.1875 C184.3753418 51.34088867 184.3753418 51.34088867 184.43945312 52.51757812 C184.53228446 56.84351847 184.38654278 58.49452098 181.6640625 62.0546875 C179 64 179 64 176.0625 63.9375 C173.02373177 63.00726483 170.01305871 62.0099404 167 61 C166.98582031 60.11957031 166.97164062 59.23914063 166.95703125 58.33203125 C166.88548828 56.58986328 166.88548828 56.58986328 166.8125 54.8125 C166.77769531 53.66394531 166.74289062 52.51539063 166.70703125 51.33203125 C165.79265771 47.02285651 164.44144898 45.7163799 161 43 C158.12804074 42.50011875 155.8596734 42.29608377 152.99609375 42.3359375 C152.23579361 42.33115387 151.47549347 42.32637024 150.69215393 42.32144165 C149.09105347 42.3180509 147.48988301 42.32719579 145.88891602 42.34814453 C143.44065069 42.37496548 140.9969531 42.34835648 138.54882812 42.31640625 C136.98957324 42.31970978 135.43032119 42.32611485 133.87109375 42.3359375 C132.77721596 42.32075577 132.77721596 42.32075577 131.66123962 42.30526733 C127.88606833 42.39221892 126.30206466 42.71207924 123.52856445 45.35571289 C121.69987038 48.51919884 121.65839432 50.43949527 121.75 54.0625 C121.48192432 59.50443631 121.48192432 59.50443631 119.34375 61.703125 C116.20940323 63.36386097 114.04751786 64.08269878 110.4765625 63.80078125 C106.7952896 62.6104643 104.86649609 60.15993101 102.2578125 57.3984375 C99.97447392 55.69398321 99.97447392 55.69398321 96.70019531 56.12109375 C92.35514145 57.15317305 90.68631173 58.54105395 87.5390625 61.6640625 C87.06302582 62.13435883 86.58698914 62.60465515 86.0965271 63.08920288 C85.09944807 64.08221999 84.10982141 65.08277107 83.12744141 66.09033203 C81.62860251 67.62132022 80.10040664 69.11761858 78.56640625 70.61328125 C77.59702886 71.58662386 76.62951458 72.56182628 75.6640625 73.5390625 C74.79217285 74.41771973 73.9202832 75.29637695 73.02197266 76.20166016 C70.59714848 79.55753249 70.15069203 81.89364227 70 86 C71.31529271 88.33911208 71.31529271 88.33911208 73.375 90.125 C76.3744814 93.00498015 77.66766387 94.79040898 78 99 C77.46801308 102.2971497 76.40556172 104.6606464 74 107 C70.90876064 107.66365591 68.13028053 107.75171379 64.97265625 107.671875 C61.05921635 108.10384471 59.70986213 109.15701789 57 112 C56.49019559 114.82700975 56.2967403 117.046848 56.3359375 119.87109375 C56.33115387 120.63043716 56.32637024 121.38978058 56.32144165 122.1721344 C56.3180457 123.77501501 56.32722723 125.37796517 56.34814453 126.98071289 C56.37488386 129.42687514 56.34841253 131.86843461 56.31640625 134.31445312 C56.31971114 135.87501008 56.32611901 137.43556418 56.3359375 138.99609375 C56.32581635 139.72332138 56.31569519 140.45054901 56.30526733 141.19981384 C56.39476382 145.103376 56.88734411 146.85727346 59.33325195 149.95605469 C62.64042369 152.49085665 64.68361201 152.68738218 68.8125 152.8125 C69.97394531 152.86019531 71.13539063 152.90789062 72.33203125 152.95703125 C73.21246094 152.97121094 74.09289062 152.98539063 75 153 C76.53139514 156.48673583 77.93806796 159.73039325 78.125 163.5625 C76.88975207 166.23887052 75.58197901 167.44526595 73.4375 169.4375 C70.4517509 172.22152437 70.4517509 172.22152437 69.4375 176.1875 C69.96549441 178.82747207 70.75454478 180.64523244 72 183 C70.10787298 183.53414112 68.21108364 184.05178329 66.3125 184.5625 C64.72888672 184.99755859 64.72888672 184.99755859 63.11328125 185.44140625 C59.99304618 186.00124767 58.02306766 185.84690764 55 185 C54.67 183.02 54.34 181.04 54 179 C53.02947189 179.24429749 53.02947189 179.24429749 52.03933716 179.49353027 C45.32462078 181.18324349 38.60908873 182.86968437 31.89306641 184.55419922 C29.3843905 185.1838876 26.8759261 185.81441925 24.36767578 186.44580078 C20.7691036 187.35148647 17.16978973 188.25416894 13.5703125 189.15625 C11.87964157 189.5827887 11.87964157 189.5827887 10.15481567 190.01794434 C9.11388763 190.27821411 8.07295959 190.53848389 7.00048828 190.80664062 C6.08115509 191.03758423 5.1618219 191.26852783 4.21463013 191.50646973 C2 192 2 192 0 192 C0 128.64 0 65.28 0 0 Z " fill="#32C846" transform="translate(264,278)"/>
<path d="M0 0 C0.75792847 -0.00099701 1.51585693 -0.00199402 2.29675293 -0.00302124 C3.89374316 0.00164436 5.49075022 0.02100948 7.08740234 0.05419922 C9.52445675 0.10143084 11.95713473 0.09531272 14.39453125 0.08203125 C15.95054677 0.0931857 17.50654396 0.10740608 19.0625 0.125 C19.78659058 0.12317719 20.51068115 0.12135437 21.25671387 0.11947632 C26.10402649 0.25453612 28.62518342 1.28263284 32.03125 4.7265625 C33.47332941 7.61072133 33.12519887 10.14377778 33.09375 13.3515625 C33.08472656 14.54007812 33.07570313 15.72859375 33.06640625 16.953125 C33.05480469 17.86835938 33.04320312 18.78359375 33.03125 19.7265625 C34.42537109 19.94119141 34.42537109 19.94119141 35.84765625 20.16015625 C39.03125 20.7265625 39.03125 20.7265625 41.96875 21.7890625 C45.07471709 22.08648868 45.07471709 22.08648868 46.68359375 20.0078125 C47.25207031 19.275625 47.82054687 18.5434375 48.40625 17.7890625 C51.48419432 13.94670563 51.48419432 13.94670563 53.97265625 12.9453125 C57.13053819 12.69812018 59.2913408 13.19442933 61.88134766 15.05712891 C62.50058105 15.62093262 63.11981445 16.18473633 63.7578125 16.765625 C64.79941528 17.71272339 64.79941528 17.71272339 65.86206055 18.67895508 C69.45821142 22.07354342 72.98179311 25.53260725 76.46875 29.0390625 C77.54672852 30.11124023 77.54672852 30.11124023 78.64648438 31.20507812 C79.32904297 31.88892578 80.01160156 32.57277344 80.71484375 33.27734375 C81.32900146 33.89262939 81.94315918 34.50791504 82.57592773 35.1418457 C85.16917284 37.96565949 85.59066461 40.66693821 85.59765625 44.484375 C84.43789723 49.07542104 80.47425285 51.713935 77.03125 54.7265625 C78.02125 58.3565625 79.01125 61.9865625 80.03125 65.7265625 C80.91167969 65.68015625 81.79210937 65.63375 82.69921875 65.5859375 C83.86066406 65.54984375 85.02210938 65.51375 86.21875 65.4765625 C87.36730469 65.43015625 88.51585937 65.38375 89.69921875 65.3359375 C93.85259371 65.82285133 95.19070727 66.66993998 98.03125 69.7265625 C98.53893623 72.77038094 98.73389543 75.24696144 98.6953125 78.2890625 C98.70009613 79.11736572 98.70487976 79.94566895 98.70980835 80.79907227 C98.71320533 82.54738264 98.70401682 84.2957567 98.68310547 86.04394531 C98.65633332 88.71823914 98.68285615 91.38833652 98.71484375 94.0625 C98.71153961 95.76303009 98.70513328 97.46355756 98.6953125 99.1640625 C98.70543365 99.96207275 98.71555481 100.76008301 98.72598267 101.58227539 C98.6435831 105.49070026 98.40118379 107.32848788 95.69799805 110.23730469 C92.32328031 112.12193146 90.05868233 112.13171128 86.21875 111.9765625 C85.05730469 111.94046875 83.89585937 111.904375 82.69921875 111.8671875 C81.81878906 111.82078125 80.93835938 111.774375 80.03125 111.7265625 C79.04125 115.3565625 78.05125 118.9865625 77.03125 122.7265625 C79.01125 124.4590625 79.01125 124.4590625 81.03125 126.2265625 C85.65839295 130.91144163 85.65839295 130.91144163 85.96875 134.7265625 C85.48218932 138.1483966 84.29993425 139.91162069 81.9921875 142.44921875 C81.04508911 143.49166748 81.04508911 143.49166748 80.07885742 144.55517578 C76.68568593 148.15346686 73.22560765 151.67670545 69.71875 155.1640625 C68.64657227 156.24204102 68.64657227 156.24204102 67.55273438 157.34179688 C66.86888672 158.02435547 66.18503906 158.70691406 65.48046875 159.41015625 C64.55754028 160.33139282 64.55754028 160.33139282 63.6159668 161.27124023 C60.79215301 163.86448534 58.09087429 164.28597711 54.2734375 164.29296875 C49.68239146 163.13320973 47.0438775 159.16956535 44.03125 155.7265625 C40.40125 156.7165625 36.77125 157.7065625 33.03125 158.7265625 C33.07765625 159.60699219 33.1240625 160.48742187 33.171875 161.39453125 C33.20796875 162.55597656 33.2440625 163.71742188 33.28125 164.9140625 C33.32765625 166.06261719 33.3740625 167.21117187 33.421875 168.39453125 C32.93496117 172.54790621 32.08787252 173.88601977 29.03125 176.7265625 C25.98743156 177.23424873 23.51085106 177.42920793 20.46875 177.390625 C19.22629517 177.39780045 19.22629517 177.39780045 17.95874023 177.40512085 C16.21042986 177.40851783 14.4620558 177.39932932 12.71386719 177.37841797 C10.03957336 177.35164582 7.36947598 177.37816865 4.6953125 177.41015625 C2.99478241 177.40685211 1.29425494 177.40044578 -0.40625 177.390625 C-1.20426025 177.40074615 -2.00227051 177.41086731 -2.82446289 177.42129517 C-6.73288776 177.3388956 -8.57067538 177.09649629 -11.47949219 174.39331055 C-13.36411896 171.01859281 -13.37389878 168.75399483 -13.21875 164.9140625 C-13.18265625 163.75261719 -13.1465625 162.59117187 -13.109375 161.39453125 C-13.06296875 160.51410156 -13.0165625 159.63367188 -12.96875 158.7265625 C-16.59875 157.7365625 -20.22875 156.7465625 -23.96875 155.7265625 C-25.70125 157.7065625 -25.70125 157.7065625 -27.46875 159.7265625 C-32.15362913 164.35370545 -32.15362913 164.35370545 -35.96875 164.6640625 C-41.33288429 164.01166779 -44.34016847 160.4313501 -47.96875 156.7265625 C-49.13732529 155.58908997 -50.30808287 154.45385708 -51.48046875 153.3203125 C-52.74874847 152.08211315 -54.01566518 150.84251622 -55.28125 149.6015625 C-55.89242676 149.0039209 -56.50360352 148.4062793 -57.13330078 147.79052734 C-61.02862661 143.89952126 -64.3149911 140.40103074 -65.65625 134.9140625 C-64.83732397 131.11722362 -63.71593219 130.3053792 -60.90625 127.7265625 C-58.7037758 125.75561176 -58.7037758 125.75561176 -56.96875 123.7265625 C-56.71545216 120.57945948 -56.71545216 120.57945948 -57.96875 117.7265625 C-58.32433212 115.73039806 -58.66064933 113.73060469 -58.96875 111.7265625 C-59.84917969 111.77296875 -60.72960937 111.819375 -61.63671875 111.8671875 C-62.79816406 111.90328125 -63.95960938 111.939375 -65.15625 111.9765625 C-66.87908203 112.04617188 -66.87908203 112.04617188 -68.63671875 112.1171875 C-72.60854862 111.6515568 -74.15646485 110.50285863 -76.96875 107.7265625 C-79.31021714 103.04362823 -78.32260451 96.09846484 -78.3737793 90.89672852 C-78.39535897 89.24677601 -78.42946239 87.59693799 -78.47631836 85.94750977 C-78.54337452 83.56474891 -78.57078246 81.18435289 -78.58984375 78.80078125 C-78.61767441 78.06727951 -78.64550507 77.33377777 -78.67417908 76.57804871 C-78.66274472 73.71835876 -78.52568812 71.42528122 -76.70373535 69.13951111 C-73.10509807 65.99775443 -70.3119895 65.07133715 -65.59375 64.9140625 C-64.00433594 64.84251953 -64.00433594 64.84251953 -62.3828125 64.76953125 C-61.58617187 64.75535156 -60.78953125 64.74117188 -59.96875 64.7265625 C-59.453125 63.6746875 -58.9375 62.6228125 -58.40625 61.5390625 C-58.11621094 60.94738281 -57.82617188 60.35570312 -57.52734375 59.74609375 C-56.77332272 57.02001774 -57.09441317 55.408141 -57.96875 52.7265625 C-59.7092169 50.64290495 -61.59797941 48.84756713 -63.5703125 46.984375 C-64.96875 44.7265625 -64.96875 44.7265625 -64.86132812 41.44042969 C-63.794325 37.00080947 -62.28332596 35.26794365 -59.0859375 32.046875 C-58.34719894 31.29952591 -58.34719894 31.29952591 -57.59353638 30.53707886 C-56.55344213 29.49292118 -55.50580976 28.4562238 -54.45117188 27.42675781 C-52.84779895 25.85553028 -51.27898884 24.25482991 -49.7109375 22.6484375 C-48.69202225 21.63348745 -47.67124713 20.6204004 -46.6484375 19.609375 C-45.72788574 18.69559082 -44.80733398 17.78180664 -43.85888672 16.84033203 C-40.44987338 14.34706987 -38.1582099 13.86351364 -33.96875 13.7265625 C-31.7109375 15.125 -31.7109375 15.125 -29.84375 17.1015625 C-26.97252023 20.09193043 -25.17429436 21.41723451 -20.96875 21.7265625 C-18.94204015 21.23296352 -18.94204015 21.23296352 -17.15625 20.2890625 C-16.104375 19.7734375 -15.0525 19.2578125 -13.96875 18.7265625 C-13.95457031 17.92992187 -13.94039063 17.13328125 -13.92578125 16.3125 C-13.87808594 15.25289063 -13.83039063 14.19328125 -13.78125 13.1015625 C-13.74644531 12.05742187 -13.71164062 11.01328125 -13.67578125 9.9375 C-11.94284976 2.06750173 -7.59616723 -0.19323213 0 0 Z M3.03125 16.7265625 C2.804375 18.2734375 2.5775 19.8203125 2.34375 21.4140625 C1.61780868 26.36366239 -0.12289172 28.54235726 -3.96875 31.7265625 C-6.49109686 33.21296402 -9.09014105 34.39223997 -11.78125 35.5390625 C-12.45478516 35.85037109 -13.12832031 36.16167969 -13.82226562 36.48242188 C-18.75413133 38.62978924 -22.59267696 39.19874669 -27.96875 38.7265625 C-31.21875 36.7265625 -31.21875 36.7265625 -33.96875 34.7265625 C-37.85689492 34.31113388 -37.85689492 34.31113388 -39.890625 36.2578125 C-40.49390625 36.9075 -41.0971875 37.5571875 -41.71875 38.2265625 C-42.33234375 38.87625 -42.9459375 39.5259375 -43.578125 40.1953125 C-44.03703125 40.700625 -44.4959375 41.2059375 -44.96875 41.7265625 C-43.88109415 43.97753721 -42.81326453 45.94185008 -41.34375 47.9765625 C-39.19395527 52.27615196 -39.31055498 56.45581407 -40.62744141 60.99902344 C-41.53299326 63.37063511 -42.53610175 65.66896633 -43.59375 67.9765625 C-43.92503906 68.76546875 -44.25632812 69.554375 -44.59765625 70.3671875 C-46.8442882 75.38607851 -48.88066383 78.18251941 -53.96875 80.7265625 C-56.3046875 81.3359375 -56.3046875 81.3359375 -58.34375 81.4765625 C-59.54 81.5590625 -60.73625 81.6415625 -61.96875 81.7265625 C-61.96875 86.3465625 -61.96875 90.9665625 -61.96875 95.7265625 C-60.421875 95.9534375 -58.875 96.1803125 -57.28125 96.4140625 C-52.34314901 97.13831731 -50.16359072 98.91064895 -46.96875 102.7265625 C-45.203125 105.953125 -45.203125 105.953125 -43.71875 109.3515625 C-43.21859375 110.47820312 -42.7184375 111.60484375 -42.203125 112.765625 C-40.23970314 117.47535212 -39.22302111 121.62267778 -39.96875 126.7265625 C-41.96875 129.9765625 -41.96875 129.9765625 -43.96875 132.7265625 C-44.38417862 136.61470742 -44.38417862 136.61470742 -42.4375 138.6484375 C-41.7878125 139.25171875 -41.138125 139.855 -40.46875 140.4765625 C-39.8190625 141.09015625 -39.169375 141.70375 -38.5 142.3359375 C-37.74203125 143.02429688 -37.74203125 143.02429688 -36.96875 143.7265625 C-34.71245103 142.63403879 -32.71483279 141.54813419 -30.65625 140.1015625 C-26.72019846 138.08776869 -23.16050994 138.11438216 -18.88842773 139.30761719 C-16.67205449 140.10733689 -14.51084571 140.98940947 -12.34375 141.9140625 C-11.60640625 142.20603516 -10.8690625 142.49800781 -10.109375 142.79882812 C-5.49063101 144.72330479 -2.14725698 146.72176433 1.03125 150.7265625 C2.18715037 154.06745596 2.51417603 157.20105813 3.03125 160.7265625 C7.65125 160.7265625 12.27125 160.7265625 17.03125 160.7265625 C17.258125 159.1796875 17.485 157.6328125 17.71875 156.0390625 C18.44300481 151.10096151 20.21533645 148.92140322 24.03125 145.7265625 C27.2578125 143.9609375 27.2578125 143.9609375 30.65625 142.4765625 C31.78289062 141.97640625 32.90953125 141.47625 34.0703125 140.9609375 C38.78003962 138.99751564 42.92736528 137.98083361 48.03125 138.7265625 C51.28125 140.7265625 51.28125 140.7265625 54.03125 142.7265625 C57.91939492 143.14199112 57.91939492 143.14199112 59.953125 141.1953125 C60.55640625 140.545625 61.1596875 139.8959375 61.78125 139.2265625 C62.39484375 138.576875 63.0084375 137.9271875 63.640625 137.2578125 C64.09953125 136.7525 64.5584375 136.2471875 65.03125 135.7265625 C63.94359415 133.47558779 62.87576453 131.51127492 61.40625 129.4765625 C59.35054892 125.36516034 59.41267081 121.15348084 60.53466797 116.75146484 C61.21342178 114.81039751 61.97153214 112.92905299 62.78125 111.0390625 C63.03390625 110.40162109 63.2865625 109.76417969 63.546875 109.10742188 C65.4426073 104.51501038 67.67517582 100.40947263 71.78125 97.4765625 C75.15693998 96.35133251 78.49247192 96.08044031 82.03125 95.7265625 C82.03125 91.1065625 82.03125 86.4865625 82.03125 81.7265625 C80.484375 81.4996875 78.9375 81.2728125 77.34375 81.0390625 C72.39199931 80.31280573 70.19704044 78.59643296 67.03125 74.7265625 C65.52797448 72.01800529 64.35824597 69.22923002 63.21875 66.3515625 C62.90744141 65.62195313 62.59613281 64.89234375 62.27539062 64.140625 C60.40405915 59.53427059 59.51316664 55.7763148 60.03125 50.7265625 C61.30879554 48.6904743 62.63824818 46.68547131 64.03125 44.7265625 C64.44667862 40.83841758 64.44667862 40.83841758 62.5 38.8046875 C61.8503125 38.20140625 61.200625 37.598125 60.53125 36.9765625 C59.55671875 36.05617188 59.55671875 36.05617188 58.5625 35.1171875 C58.0571875 34.65828125 57.551875 34.199375 57.03125 33.7265625 C54.78027529 34.81421835 52.81596242 35.88204797 50.78125 37.3515625 C46.66984784 39.40726358 42.45816834 39.34514169 38.05615234 38.22314453 C36.11508501 37.54439072 34.23374049 36.78628036 32.34375 35.9765625 C31.70630859 35.72390625 31.06886719 35.47125 30.41210938 35.2109375 C25.81969788 33.3152052 21.71416013 31.08263668 18.78125 26.9765625 C17.65602001 23.60087252 17.38512781 20.26534058 17.03125 16.7265625 C12.41125 16.7265625 7.79125 16.7265625 3.03125 16.7265625 Z " fill="#000101" transform="translate(397.96875,319.2734375)"/>
<path d="M0 0 C4.82561171 0.89628866 7.42047831 4.30591075 10.72802734 7.76171875 C11.45200714 8.49418823 12.17598694 9.22665771 12.92190552 9.98132324 C15.22851845 12.32149269 17.51338989 14.6816617 19.79833984 17.04296875 C21.35945116 18.63417611 22.9219359 20.22403727 24.48583984 21.8125 C28.31440739 25.70718193 32.12533573 29.61848878 35.92333984 33.54296875 C34.92333984 35.54296875 34.92333984 35.54296875 33.01025391 36.19384766 C32.16172852 36.38382324 31.31320312 36.57379883 30.43896484 36.76953125 C29.46088867 36.99237793 28.4828125 37.21522461 27.47509766 37.44482422 C26.38551758 37.68346191 25.2959375 37.92209961 24.17333984 38.16796875 C23.02446289 38.42594238 21.87558594 38.68391602 20.69189453 38.94970703 C16.77140852 39.82523059 12.84781365 40.68555554 8.92333984 41.54296875 C7.50795745 41.85343444 6.09259313 42.16398254 4.67724609 42.47460938 C-9.42215301 45.56502153 -23.53304651 48.60118072 -37.66259766 51.55078125 C-38.45105576 51.71542374 -39.23951385 51.88006622 -40.05186462 52.04969788 C-40.83952713 52.21416916 -41.62718964 52.37864044 -42.4387207 52.5480957 C-44.02637731 52.87967158 -45.61402381 53.21129586 -47.20166016 53.54296875 C-47.98594391 53.70679047 -48.77022766 53.87061218 -49.57827759 54.03939819 C-61.25222889 56.48223861 -72.89177126 59.05331948 -84.51416016 61.73046875 C-85.24026489 61.89764404 -85.96636963 62.06481934 -86.71447754 62.23706055 C-89.53318549 62.88622523 -92.35181546 63.53572773 -95.17037964 64.18551636 C-101.59166164 65.6645544 -108.01765538 67.12030928 -114.45166016 68.54296875 C-115.83309204 68.85463989 -115.83309204 68.85463989 -117.24243164 69.17260742 C-126.14776144 71.12451904 -126.14776144 71.12451904 -129.07666016 70.54296875 C-131.21728516 68.48828125 -131.21728516 68.48828125 -133.32666016 65.66796875 C-136.29504579 61.82479397 -139.28909281 58.11791087 -142.57666016 54.54296875 C-146.52501378 50.2094099 -150.24290762 45.72538621 -153.92431641 41.1640625 C-156.47699999 38.05544057 -159.14388928 35.06601363 -161.86181641 32.1015625 C-163.07666016 30.54296875 -163.07666016 30.54296875 -163.07666016 28.54296875 C-148.58889191 25.88703596 -134.08995199 23.30541719 -119.57666016 20.79296875 C-117.58055018 20.44670814 -115.58445683 20.10035159 -113.58837891 19.75390625 C-109.4634424 19.03804477 -105.33843645 18.32258554 -101.21337891 17.60742188 C-93.39647096 16.25190655 -85.58027381 14.89231318 -77.76416016 13.53222656 C-73.98308222 12.87433067 -70.20182279 12.21749277 -66.42041016 11.56152344 C-57.41994875 9.99946469 -48.42095522 8.42990962 -39.42578125 6.83764648 C-35.1687457 6.08450813 -30.91106119 5.33507675 -26.65332031 4.5859375 C-24.62011411 4.22711742 -22.58722893 3.86647302 -20.5546875 3.50390625 C-17.73988464 3.00191512 -14.92404569 2.50617038 -12.10791016 2.01171875 C-11.27884155 1.86214722 -10.44977295 1.71257568 -9.59558105 1.55847168 C-6.40150743 1.00265532 -3.19304963 0.56350915 0 0 Z " fill="#32C746" transform="translate(435.07666015625,232.45703125)"/>
<path d="M0 0 C1.45630485 0.22148489 2.91357278 0.43674948 4.37182617 0.64501953 C5.84610288 0.88755561 7.31980342 1.13361479 8.79296875 1.3828125 C9.60391998 1.51753967 10.41487122 1.65226685 11.25039673 1.79107666 C13.89671873 2.23209374 16.54213465 2.67828312 19.1875 3.125 C21.07185759 3.4409247 22.95621634 3.75684255 24.84057617 4.07275391 C37.62393269 6.22387864 50.38639205 8.48022621 63.14044189 10.79806519 C80.47045214 13.94536729 97.8346772 16.88468569 115.2043457 19.80419922 C128.82316337 22.09698174 142.41901459 24.49265002 156 27 C154.1273338 30.9981047 151.51876665 34.07804864 148.625 37.375 C147.53900915 38.62755792 146.45307323 39.88016345 145.3671875 41.1328125 C144.5313916 42.0923584 144.5313916 42.0923584 143.67871094 43.07128906 C141.5358235 45.53330343 139.40165394 48.00261949 137.27539062 50.47900391 C136.26184821 51.65573833 135.24233014 52.82735321 134.21679688 53.99365234 C131.90337573 56.64741624 129.87187815 59.19930065 127.9609375 62.171875 C126.12056478 65.00683212 124.68097177 66.9464361 122 69 C119.10595703 69.08276367 119.10595703 69.08276367 115.7578125 68.48046875 C114.5104834 68.26052246 113.2631543 68.04057617 111.97802734 67.81396484 C105.93481965 66.60264512 99.92698279 65.25722461 93.93151855 63.83078003 C90.10372759 62.92138249 86.27088279 62.03392434 82.4375 61.1484375 C81.65236023 60.96701706 80.86722046 60.78559662 80.05828857 60.59867859 C71.98233705 58.74533209 63.87126202 57.07869193 55.75 55.4375 C43.91614332 53.04194347 32.13456787 50.47814761 20.3659668 47.77636719 C6.75481814 44.67406171 -6.91286186 41.84561051 -20.58374023 39.02001953 C-21.48012207 38.83422836 -22.37650391 38.64843719 -23.30004883 38.45701599 C-24.9760842 38.10983695 -26.65241371 37.7640733 -28.32910156 37.4200592 C-33.25427195 36.39992071 -38.12783227 35.24967376 -43 34 C-41.68698559 31.12187731 -40.25839361 28.97774512 -38.0859375 26.68432617 C-37.49772217 26.06075729 -36.90950684 25.43718842 -36.3034668 24.79472351 C-33.59731112 21.98572518 -30.88478347 19.18357784 -28.15380859 16.39868164 C-26.72038879 14.92707848 -25.29870716 13.4439479 -23.88916016 11.94946289 C-21.84825741 9.78664042 -19.77326094 7.66245757 -17.6875 5.54296875 C-17.0672998 4.87226852 -16.44709961 4.2015683 -15.80810547 3.51054382 C-10.58456853 -1.66509869 -6.970345 -1.49943221 0 0 Z " fill="#32C846" transform="translate(84,234)"/>
<path d="M0 0 C3.23297965 2.10344484 6.12077223 4.43882646 9 7 C9.60328125 7.49886719 10.2065625 7.99773437 10.828125 8.51171875 C20.597371 17.24683285 27.5586899 32.03855655 28.3046875 45.01953125 C28.7922547 61.43493586 24.62583311 76.20813167 14 89 C11.5030896 91.59709508 8.95883622 94.11265136 6.33203125 96.578125 C3.8291511 98.94089599 3.8291511 98.94089599 2.33984375 102.2734375 C0 105 0 105 -2.1862793 105.4765625 C-4.89806289 105.59155342 -7.54000403 105.52302499 -10.25 105.375 C-11.65378906 105.33439453 -11.65378906 105.33439453 -13.0859375 105.29296875 C-15.3929724 105.22234523 -17.69530769 105.12380579 -20 105 C-20.01417969 103.68644531 -20.02835937 102.37289062 -20.04296875 101.01953125 C-20.08987988 99.28381949 -20.13812721 97.54814348 -20.1875 95.8125 C-20.19330078 94.94818359 -20.19910156 94.08386719 -20.20507812 93.19335938 C-20.34455975 89.14839214 -20.47785933 86.71915457 -22.89453125 83.390625 C-23.91933594 82.60171875 -24.94414062 81.8128125 -26 81 C-26.75821045 80.40276123 -27.5164209 79.80552246 -28.29760742 79.19018555 C-31.00797579 77.07287673 -33.74900253 75.00169411 -36.5 72.9375 C-38.36495798 71.53044435 -40.22955299 70.12290745 -42.09375 68.71484375 C-43.32641602 67.78853149 -43.32641602 67.78853149 -44.58398438 66.84350586 C-45.38126953 66.23514893 -46.17855469 65.62679199 -47 65 C-47.91467041 64.31510498 -48.82934082 63.63020996 -49.77172852 62.92456055 C-52 61 -52 61 -52.55859375 58.4921875 C-52.51863281 57.62851563 -52.47867188 56.76484375 -52.4375 55.875 C-52.41558594 55.00617188 -52.39367187 54.13734375 -52.37109375 53.2421875 C-52 51 -52 51 -50 49 C-46.41528385 49.3061945 -44.55591056 51.03634183 -42 53.4375 C-36.9015636 58.20732624 -33.46438317 59.42521434 -26.51953125 59.2421875 C-19.66686008 58.58348112 -15.55924852 55.00234272 -10.89453125 50.328125 C-9 49 -9 49 -6.82421875 49.234375 C-5 50 -5 50 -4 51 C-3.12910655 54.53976049 -3.03266233 57.47612707 -4 61 C-7.28613518 64.56870094 -10.9828355 67.30015243 -15 70 C-13.78700388 73.28189138 -12.46498519 76.00751987 -10.375 78.8125 C-9.59125 79.864375 -8.8075 80.91625 -8 82 C-1.14284507 79.57116874 5.69442178 74.80352564 9.625 68.5625 C12.56219924 61.4935468 12.42085206 51.53101209 10.15234375 44.296875 C7.42269075 39.44827102 3.18990716 35.96546222 -2 34 C-7.95745144 32.92974243 -12.92498198 33.77182094 -18.19140625 36.70703125 C-20.11232462 38.08030119 -21.594631 39.57371934 -23.1875 41.3125 C-24.115625 42.199375 -25.04375 43.08625 -26 44 C-30.09885684 43.80198759 -32.11465293 42.36058859 -35 39.5625 C-40.28594265 34.76781596 -44.29750282 33.44828132 -51.4375 33.62890625 C-57.18715981 34.46155516 -61.417586 37.79456074 -65 42.25 C-67.39049904 46.49617456 -67.49244982 50.73452716 -67.5625 55.5 C-67.58473633 56.56782715 -67.58473633 56.56782715 -67.60742188 57.65722656 C-67.48341233 64.07914952 -65.79504017 69.27026621 -61.12963867 73.82666016 C-58.91240912 75.66040582 -56.64123254 77.3728773 -54.3125 79.0625 C-52.76692708 80.22005208 -51.22135417 81.37760417 -49.67578125 82.53515625 C-47.28591424 84.32194205 -44.89077254 86.07507117 -42.43139648 87.76538086 C-36.21363314 92.19578991 -36.21363314 92.19578991 -35.12109375 96.30859375 C-35.22550781 97.34113281 -35.32992187 98.37367188 -35.4375 99.4375 C-35.51871094 100.48808594 -35.59992188 101.53867188 -35.68359375 102.62109375 C-35.78800781 103.40613281 -35.89242187 104.19117188 -36 105 C-53.76008798 106.47058053 -53.76008798 106.47058053 -58.5703125 103.3125 C-60.1875 101.0625 -60.1875 101.0625 -61.5703125 98.5625 C-63.20339848 95.6354388 -65.09975026 93.82338501 -67.5625 91.5625 C-74.64037963 84.6290669 -78.85179485 76.32353064 -82 67 C-82.226875 66.3296875 -82.45375 65.659375 -82.6875 64.96875 C-86.72383697 50.39308871 -83.96691829 35.56572863 -77.3125 22.3125 C-68.96141526 7.93356461 -56.20773176 -0.9448854 -40.625 -6.12109375 C-26.80044144 -9.47295332 -12.43699711 -6.36975933 0 0 Z " fill="#FCE08D" transform="translate(284,63)"/>
<path d="M0 0 C7.8809893 6.25945832 14.02889121 16.67832767 15.890625 26.58984375 C16.77532629 41.05130713 14.26407641 52.75298408 5.140625 64.27734375 C-2.22134966 72.39054031 -13.44760297 78.03411474 -24.39453125 78.828125 C-38.426011 79.10382109 -49.43613826 75.14771223 -60.14453125 65.81640625 C-69.5453102 56.0230673 -72.62631081 43.82152965 -72.38671875 30.703125 C-72.13115379 25.15571236 -70.57471394 20.54356219 -68.109375 15.58984375 C-67.68527344 14.72746094 -67.26117188 13.86507813 -66.82421875 12.9765625 C-60.47147447 1.31511827 -50.59795354 -5.00956243 -38.109375 -9.05859375 C-24.16551175 -11.50966346 -11.57180897 -7.73596859 0 0 Z " fill="#020202" transform="translate(436.109375,373.41015625)"/>
<path d="M0 0 C7.425 1.485 7.425 1.485 15 3 C15 5.31 15 7.62 15 10 C15.69738281 10.08636719 16.39476562 10.17273438 17.11328125 10.26171875 C30.16283562 11.99847263 43.06909491 14.55294657 56 17 C57.90363145 17.35814936 59.80727624 17.71622786 61.7109375 18.07421875 C73.49121256 20.29736143 85.24904929 22.62709051 97 25 C94.44969581 27.55030419 92.97496153 27.5132501 89.4296875 28.04296875 C88.2449585 28.22577393 87.06022949 28.4085791 85.83959961 28.59692383 C85.19747528 28.69244537 84.55535095 28.78796692 83.89376831 28.88638306 C80.36243566 29.4131122 76.83578597 29.96977132 73.30859375 30.5234375 C72.55500076 30.64115005 71.80140778 30.75886261 71.02497864 30.88014221 C62.31032607 32.24972095 53.62430295 33.77766953 44.9375 35.3125 C42.42448527 35.75585506 39.91144893 36.19908742 37.39840698 36.64228821 C35.6675257 36.94755072 33.93667067 37.25296208 32.20584106 37.55851746 C25.37824628 38.76205898 18.54709818 39.94432243 11.71484375 41.12109375 C9.63874606 41.47936913 7.56265553 41.83768597 5.48657227 42.19604492 C2.46745061 42.71714818 -0.55179355 43.23745862 -3.57156372 43.75479126 C-6.37368174 44.23499708 -9.17529654 44.7179745 -11.9765625 45.203125 C-12.85499313 45.35508835 -13.73342377 45.5070517 -14.63847351 45.66362 C-19.73975879 46.56020806 -24.78491036 47.58867057 -29.8359375 48.734375 C-39.35346772 50.79501536 -46.99822863 49.65565478 -56.49865723 47.894104 C-59.47547463 47.34236998 -62.45511868 46.806613 -65.43457031 46.26931763 C-67.05580995 45.97672887 -68.67690048 45.68331281 -70.29785156 45.38912964 C-79.31218617 43.75456031 -88.33827935 42.18886882 -97.3651123 40.62506104 C-100.259546 40.12334531 -103.15373449 39.62023792 -106.04785156 39.11669922 C-115.24855504 37.51628113 -124.4501157 35.9210417 -133.65368652 34.33718872 C-137.87790967 33.60993025 -142.10175273 32.88047847 -146.32556152 32.15081787 C-148.33944988 31.80356099 -150.35352564 31.45738902 -152.36779785 31.11236572 C-155.17015087 30.63229984 -157.97184692 30.14855505 -160.7734375 29.6640625 C-161.59224396 29.52480347 -162.41105042 29.38554443 -163.25466919 29.24206543 C-168.2387214 28.3755671 -173.10554039 27.28103457 -178 26 C-174.09249442 23.61048051 -169.7637827 23.05495534 -165.328125 22.265625 C-164.46508255 22.10692932 -163.6020401 21.94823364 -162.71284485 21.784729 C-159.89290436 21.26745427 -157.07150833 20.75864685 -154.25 20.25 C-152.3084026 19.89578346 -150.36691552 19.54096169 -148.42553711 19.18554688 C-145.47859096 18.64617283 -142.5315624 18.10729882 -139.58409119 17.57080078 C-133.44310796 16.45234552 -127.30730862 15.30976978 -121.17578125 14.140625 C-120.05956894 13.92832245 -120.05956894 13.92832245 -118.92080688 13.71173096 C-116.12171621 13.17914037 -113.32267136 12.64640573 -110.52478027 12.10754395 C-108.64343972 11.74555537 -106.76119433 11.38827884 -104.87890625 11.03125 C-103.30991577 10.73057617 -103.30991577 10.73057617 -101.70922852 10.42382812 C-99 10 -99 10 -95 10 C-95 7.69 -95 5.38 -95 3 C-89.92523206 1.73694665 -85.27203646 0.72963916 -80 1 C-79.88785156 1.87398437 -79.88785156 1.87398437 -79.7734375 2.765625 C-78.08824741 13.27328086 -74.24977765 22.18696139 -65.5390625 28.59765625 C-57.23186026 33.18578795 -50.1409545 33.51918479 -40.75 33.5 C-38.88021484 33.54253906 -38.88021484 33.54253906 -36.97265625 33.5859375 C-26.85655797 33.60707877 -19.22511754 31.19312739 -10.625 25.9375 C-3.92715273 18.44228996 -1.28841766 9.79197419 0 0 Z " fill="#C8D7EC" transform="translate(296,198)"/>
<path d="M0 0 C7.01935268 4.78867756 11.26998759 10.64875826 13 19 C14.16082502 27.93394442 11.93851955 34.53759103 7 42 C2.28207597 47.60534308 -4.42424618 51.41149987 -11.703125 52.34765625 C-20.44109237 52.62834515 -27.04699736 50.9301849 -33.8125 45.3125 C-40.18563207 39.27303976 -43.07313081 32.54317632 -43.3125 23.8125 C-43.19529602 14.99876049 -39.64524988 9.00309774 -33.7265625 2.65625 C-24.3803179 -6.3093783 -10.81386177 -6.07943472 0 0 Z " fill="#E3E3E3" transform="translate(423,384)"/>
<path d="M0 0 C4.64080887 2.09691569 7.73327953 5.32828506 11.3125 8.875 C11.97056641 9.50019531 12.62863281 10.12539063 13.30664062 10.76953125 C13.92345703 11.37925781 14.54027344 11.98898438 15.17578125 12.6171875 C15.74208252 13.17003418 16.30838379 13.72288086 16.8918457 14.29248047 C18 16 18 16 17.81933594 18.05029297 C16.53432242 21.10813503 14.30912746 22.96843434 11.9375 25.25 C11.01839844 26.14203125 10.09929687 27.0340625 9.15234375 27.953125 C8.44207031 28.62859375 7.73179687 29.3040625 7 30 C0.58930713 24.72898586 -5.18590512 18.90871848 -11 13 C-9.46356148 9.31930113 -7.21849055 7.01224796 -4.375 4.25 C-3.55773437 3.45078125 -2.74046875 2.6515625 -1.8984375 1.828125 C-0.95871094 0.92320313 -0.95871094 0.92320313 0 0 Z " fill="#000000" transform="translate(187,32)"/>
<path d="M0 0 C7 6 7 6 13 13 C7.39 18.61 1.78 24.22 -4 30 C-11 24 -11 24 -17 17 C-11.39 11.39 -5.78 5.78 0 0 Z " fill="#000000" transform="translate(323,32)"/>
<path d="M0 0 C15.84 0 31.68 0 48 0 C48 2.64 48 5.28 48 8 C32.16 8 16.32 8 0 8 C0 5.36 0 2.72 0 0 Z " fill="#495766" transform="translate(232,184)"/>
<path d="M0 0 C7.92 0 15.84 0 24 0 C24 5.28 24 10.56 24 16 C16.08 16 8.16 16 0 16 C0 10.72 0 5.44 0 0 Z " fill="#000000" transform="translate(336,104)"/>
<path d="M0 0 C7.92 0 15.84 0 24 0 C24 5.28 24 10.56 24 16 C16.08 16 8.16 16 0 16 C0 10.72 0 5.44 0 0 Z " fill="#000000" transform="translate(152,104)"/>
<path d="M0 0 C5.28 0 10.56 0 16 0 C16 7.92 16 15.84 16 24 C10.72 24 5.44 24 0 24 C0 16.08 0 8.16 0 0 Z " fill="#000000" transform="translate(248,8)"/>
<path d="M0 0 C13.86 0 27.72 0 42 0 C39.73175906 4.53648189 37.6758514 6.36108334 33 8 C28.84197761 8.61389705 24.75998966 8.64964762 20.5625 8.625 C18.9218457 8.67333984 18.9218457 8.67333984 17.24804688 8.72265625 C10.53784437 8.73073596 6.49185735 7.8362957 1.30834961 3.48583984 C0 2 0 2 0 0 Z " fill="#475564" transform="translate(235,208)"/>
</svg>
