<?xml version="1.0" encoding="UTF-8"?>
<svg version="1.1" xmlns="http://www.w3.org/2000/svg" width="512" height="512">
<path d="M0 0 C8.29809926 2.71853186 17.22675526 4.47961739 25.95703125 4.96875 C26.87097656 5.02160156 27.78492188 5.07445312 28.7265625 5.12890625 C40.92402673 5.48178886 53.41523018 3.75551341 64.89453125 -0.40625 C71.72868914 -2.64413546 76.33183486 -1.45431697 82.95703125 0.96875 C84.19324219 1.38769531 85.42945313 1.80664062 86.703125 2.23828125 C104.8924688 8.57134952 124.6043105 17.8996059 138.95703125 30.96875 C138.95703125 31.29875 138.95703125 31.62875 138.95703125 31.96875 C138.33771729 32.00838867 137.71840332 32.04802734 137.08032227 32.08886719 C134.22526007 32.28152867 131.37270671 32.49997616 128.51953125 32.71875 C127.05870117 32.8115625 127.05870117 32.8115625 125.56835938 32.90625 C114.91368747 33.7614745 105.80322039 37.65182875 98.453125 45.59375 C92.60401256 53.13648604 91.49462307 61.44595168 91.5234375 70.7421875 C91.51819565 71.74657867 91.5129538 72.75096985 91.5075531 73.78579712 C91.5011648 75.89852988 91.50242821 78.01129835 91.51098633 80.12402344 C91.51948979 83.32812905 91.49069915 86.53044519 91.45898438 89.734375 C91.45737172 91.79947864 91.45795113 93.86458539 91.4609375 95.9296875 C91.44408653 97.3442775 91.44408653 97.3442775 91.42689514 98.78744507 C91.51992668 107.82284022 93.82483118 116.57858535 100.08203125 123.34375 C100.76523438 124.11460937 101.4484375 124.88546875 102.15234375 125.6796875 C105.86097546 128.87713011 105.86097546 128.87713011 114.95703125 132.96875 C114.95703125 172.23875 114.95703125 211.50875 114.95703125 251.96875 C106.63610499 255.16910625 98.90088873 258.02317619 90.33203125 260.09375 C88.79059448 260.47213013 88.79059448 260.47213013 87.21801758 260.8581543 C28.52528458 274.903541 -34.56041022 265.86887771 -86.35546875 234.59375 C-94.97749503 229.24289926 -103.10526593 223.28206166 -111.04296875 216.96875 C-111.60822266 216.52063965 -112.17347656 216.0725293 -112.75585938 215.61083984 C-125.80417351 205.16677108 -137.9705104 193.32617856 -148.04296875 179.96875 C-148.58824219 179.32164062 -149.13351563 178.67453125 -149.6953125 178.0078125 C-153.81133534 172.60339469 -154.16638529 166.8904201 -153.41552734 160.25390625 C-146.56725348 118.24876645 -122.02360485 78.34757468 -93.04296875 47.96875 C-92.24375 47.11667969 -91.44453125 46.26460937 -90.62109375 45.38671875 C-71.49194567 25.53866477 -46.87441481 10.83495186 -21.00830078 1.66601562 C-19.28181641 1.053489 -17.56572073 0.41184377 -15.8515625 -0.234375 C-9.86690689 -2.24344858 -5.96526444 -1.97988748 0 0 Z " fill="#000000" transform="translate(153.04296875,199.03125)"/>
<path d="M0 0 C69.3 0 138.6 0 210 0 C210.0825 25.03875 210.165 50.0775 210.25 75.875 C210.28641602 83.77163574 210.32283203 91.66827148 210.36035156 99.80419922 C210.37841797 109.47094727 210.37841797 109.47094727 210.3817749 114.00100708 C210.38549111 117.15484955 210.40043897 120.3084208 210.42230225 123.46218872 C210.44987666 127.49361103 210.45793944 131.52464281 210.4522891 135.55615067 C210.45346943 137.03032377 210.46131989 138.50451147 210.47686052 139.97860312 C210.59438315 151.67594221 209.04953744 160.58342193 200.859375 169.24609375 C194.33401228 175.40132035 188.34798535 178.24134337 179.19561768 178.26742554 C178.5360113 178.27195665 177.87640493 178.27648776 177.19681048 178.28115618 C174.99994964 178.29375498 172.80333815 178.29218277 170.60644531 178.29052734 C169.02574344 178.29651551 167.44504449 178.30332172 165.86434937 178.31088257 C161.57903022 178.32852237 157.293791 178.33323715 153.00843906 178.33451414 C150.32782986 178.33593766 147.64724084 178.3402111 144.96663666 178.34550858 C135.60534886 178.36400349 126.24411796 178.37218003 116.8828125 178.37060547 C108.17249975 178.36940482 99.4624351 178.39049343 90.75218511 178.4220928 C83.26151217 178.44829412 75.77092005 178.45897112 68.28020167 178.45769465 C63.8119285 178.45718607 59.34387581 178.46281135 54.8756485 178.48405075 C50.66974458 178.50349781 46.46426995 178.50351377 42.25835037 178.48901749 C40.72093449 178.48693615 39.18349127 178.49158981 37.64612198 178.5037384 C26.53736845 178.58578601 16.96254752 177.57763872 8.53125 169.703125 C2.69416631 163.21085845 -0.25481671 156.20264352 -0.24050903 147.43203735 C-0.24326403 146.13070673 -0.24601902 144.82937611 -0.2488575 143.48861122 C-0.2417651 142.05311623 -0.23448932 140.61762214 -0.22705078 139.18212891 C-0.22643772 137.63950295 -0.22670576 136.09687642 -0.2277813 134.55425072 C-0.22823192 130.43154046 -0.21665905 126.30894683 -0.20256042 122.18626404 C-0.19115168 118.31452068 -0.19063316 114.44280538 -0.18920898 110.57104492 C-0.17872366 99.25568123 -0.15080127 87.94033913 -0.125 76.625 C-0.08375 51.33875 -0.0425 26.0525 0 0 Z M52.125 30.3125 C50.17791999 33.23312001 49.87320009 35.79233966 49.85955811 39.19943237 C49.85384796 40.05457428 49.84813782 40.90971619 49.84225464 41.79077148 C49.84113678 42.72590576 49.84001892 43.66104004 49.83886719 44.62451172 C49.83390228 45.61178253 49.82893738 46.59905334 49.82382202 47.61624146 C49.80919797 50.88739718 49.80239829 54.15850443 49.796875 57.4296875 C49.79112415 59.70028688 49.78536641 61.97088625 49.77960205 64.2414856 C49.76909165 69.00457994 49.7632491 73.7676574 49.75976562 78.53076172 C49.75427807 84.63638331 49.73024444 90.74178221 49.70179367 96.84733391 C49.68317856 101.53818415 49.67796231 106.2289806 49.67642975 110.91986465 C49.67340061 113.17094262 49.66536334 115.42201959 49.65224457 117.67306137 C49.63520648 120.82111359 49.63705892 123.96861971 49.64355469 127.11669922 C49.6343399 128.04778503 49.62512512 128.97887085 49.6156311 129.93817139 C49.64654866 134.7168624 49.72140056 138.21652208 53 142 C56.94297448 143.24130678 58.97045119 143.52541757 62.68711853 141.62866211 C66.19003315 137.64749012 65.69304282 134.02018866 65.63110352 128.87890625 C65.63825882 127.85086884 65.64541412 126.82283142 65.65278625 125.76364136 C65.66970566 122.36280995 65.65025055 118.96329068 65.62890625 115.5625 C65.62973464 113.20125214 65.6321929 110.84000434 65.63621521 108.47875977 C65.63907545 103.52895764 65.6243492 98.57960745 65.59692383 93.62988281 C65.56284135 87.28077474 65.56885749 80.932475 65.5875864 74.58332825 C65.59814801 69.70716601 65.58922607 64.83119231 65.57420158 59.95504761 C65.56901318 57.61384643 65.56950951 55.27262562 65.57574654 52.931427 C65.58118837 49.66088427 65.56085527 46.39150408 65.53344727 43.12109375 C65.53997314 42.15058075 65.54649902 41.18006775 65.55322266 40.18014526 C65.51646061 34.9537886 65.51646061 34.9537886 63.1893158 30.39477539 C59.58982362 28.10160091 55.69405208 27.81416355 52.125 30.3125 Z M99.125 30.3125 C97.17791999 33.23312001 96.87320009 35.79233966 96.85955811 39.19943237 C96.85384796 40.05457428 96.84813782 40.90971619 96.84225464 41.79077148 C96.84113678 42.72590576 96.84001892 43.66104004 96.83886719 44.62451172 C96.83390228 45.61178253 96.82893738 46.59905334 96.82382202 47.61624146 C96.80919797 50.88739718 96.80239829 54.15850443 96.796875 57.4296875 C96.79112415 59.70028688 96.78536641 61.97088625 96.77960205 64.2414856 C96.76909165 69.00457994 96.7632491 73.7676574 96.75976562 78.53076172 C96.75427807 84.63638331 96.73024444 90.74178221 96.70179367 96.84733391 C96.68317856 101.53818415 96.67796231 106.2289806 96.67642975 110.91986465 C96.67340061 113.17094262 96.66536334 115.42201959 96.65224457 117.67306137 C96.63520648 120.82111359 96.63705892 123.96861971 96.64355469 127.11669922 C96.6343399 128.04778503 96.62512512 128.97887085 96.6156311 129.93817139 C96.64654866 134.7168624 96.72140056 138.21652208 100 142 C103.94297448 143.24130678 105.97045119 143.52541757 109.68711853 141.62866211 C113.19003315 137.64749012 112.69304282 134.02018866 112.63110352 128.87890625 C112.63825882 127.85086884 112.64541412 126.82283142 112.65278625 125.76364136 C112.66970566 122.36280995 112.65025055 118.96329068 112.62890625 115.5625 C112.62973464 113.20125214 112.6321929 110.84000434 112.63621521 108.47875977 C112.63907545 103.52895764 112.6243492 98.57960745 112.59692383 93.62988281 C112.56284135 87.28077474 112.56885749 80.932475 112.5875864 74.58332825 C112.59814801 69.70716601 112.58922607 64.83119231 112.57420158 59.95504761 C112.56901318 57.61384643 112.56950951 55.27262562 112.57574654 52.931427 C112.58118837 49.66088427 112.56085527 46.39150408 112.53344727 43.12109375 C112.53997314 42.15058075 112.54649902 41.18006775 112.55322266 40.18014526 C112.51646061 34.9537886 112.51646061 34.9537886 110.1893158 30.39477539 C106.58982362 28.10160091 102.69405208 27.81416355 99.125 30.3125 Z M145 32 C144.0870445 34.73886649 143.87270826 36.34319976 143.86628723 39.16146851 C143.86202225 40.00819626 143.85775726 40.85492401 143.85336304 41.72731018 C143.85381622 42.65309372 143.85426941 43.57887726 143.85473633 44.53271484 C143.85137772 45.51023209 143.8480191 46.48774933 143.84455872 47.49488831 C143.83504233 50.73358422 143.83310524 53.97222847 143.83203125 57.2109375 C143.82881909 59.45911684 143.82545505 61.70729596 143.82194519 63.95547485 C143.81595216 68.67149337 143.81410546 73.38749356 143.81469727 78.10351562 C143.81479889 84.14855396 143.8011476 90.19347484 143.78392506 96.23848534 C143.77281004 100.88301128 143.77077791 105.52750878 143.77130699 110.17204666 C143.77012609 112.40078766 143.76569815 114.62952937 143.75797462 116.85825729 C143.74818516 119.97508739 143.75104879 123.09166195 143.75708008 126.20849609 C143.75146057 127.13023117 143.74584106 128.05196625 143.74005127 129.00163269 C143.74931017 135.24496872 143.74931017 135.24496872 146 141 C149.49124017 143.32749345 150.89222251 143.50299316 155 143 C157.35968553 141.67066286 157.35968553 141.67066286 159 139 C159.60560045 135.63106062 159.54607054 132.29406235 159.51757812 128.87890625 C159.5245874 127.85086884 159.53159668 126.82283142 159.53881836 125.76364136 C159.5564339 122.36298673 159.54476243 118.9631632 159.53125 115.5625 C159.53394388 113.20125163 159.53782542 110.84000434 159.54284668 108.47875977 C159.54874658 103.52902672 159.5401626 98.57958232 159.52148438 93.62988281 C159.49869498 87.28079758 159.51181537 80.93238866 159.53577423 74.58332825 C159.55021867 69.70718273 159.54563234 64.83119793 159.53526306 59.95504761 C159.53259205 57.61383993 159.53587862 55.27261772 159.54518127 52.931427 C159.55532416 49.66092195 159.53987625 46.39151674 159.51757812 43.12109375 C159.52567505 42.15058075 159.53377197 41.18006775 159.54211426 40.18014526 C159.5200834 34.94269348 159.5200834 34.94269348 157.15515137 30.39477539 C152.69680738 27.50941496 148.65377401 28.34622599 145 32 Z " fill="#000000" transform="translate(280,334)"/>
<path d="M0 0 C0.67272949 0.24137695 1.34545898 0.48275391 2.03857422 0.73144531 C21.94370725 8.15211624 38.12959698 21.49056322 50 39 C50.82951172 40.19689453 50.82951172 40.19689453 51.67578125 41.41796875 C56.41546556 48.72957478 59.32324617 56.75543335 62 65 C62.34417969 66.05316406 62.68835938 67.10632813 63.04296875 68.19140625 C69.86154336 93.76906405 64.37380407 120.69043249 51.6640625 143.33984375 C48.82222116 147.88278731 45.46693716 151.92566637 42 156 C41.46890625 156.67675781 40.9378125 157.35351562 40.390625 158.05078125 C26.15663674 175.63187071 3.01505313 186.03229345 -19 189 C-48.69090939 191.23905143 -74.35059266 183.95331537 -97.15600586 164.52685547 C-114.09046175 149.45440864 -124.7450454 128.33877421 -128 106 C-128.74841617 92.35614635 -129.26868168 78.11210147 -125 65 C-124.80132324 64.37125977 -124.60264648 63.74251953 -124.39794922 63.09472656 C-116.00447285 37.02779546 -97.80728365 16.71384215 -73.59375 4.24609375 C-51.21303156 -5.99462489 -23.39915981 -8.42249604 0 0 Z " fill="#000000" transform="translate(217,4)"/>
<path d="M0 0 C0.90632836 -0.0060911 1.81265673 -0.01218221 2.74644959 -0.01845789 C5.76632736 -0.03503195 8.7857809 -0.03032005 11.80569458 -0.0255127 C13.97781815 -0.03285625 16.14993783 -0.04144331 18.322052 -0.05117798 C24.21052631 -0.07337206 30.09886058 -0.07632571 35.98737097 -0.07443047 C40.90779234 -0.07431067 45.82818414 -0.08287844 50.74859726 -0.09120798 C62.35912117 -0.11043436 73.96957318 -0.11332858 85.58010864 -0.10656738 C97.54762319 -0.09992642 109.51477798 -0.12279511 121.4822377 -0.15988111 C131.76698928 -0.19059313 142.05164179 -0.20193651 152.3364383 -0.1980443 C158.47472109 -0.19597844 164.612764 -0.20143134 170.75100327 -0.22593689 C176.52464371 -0.24822608 182.29778351 -0.24630759 188.07142639 -0.22600937 C190.18613704 -0.22260327 192.30088153 -0.22767107 194.41554642 -0.24199295 C215.69953343 -0.37615669 215.69953343 -0.37615669 222.67727661 5.39440918 C227.13992418 10.246298 229.76501824 14.29534028 229.87014771 21.01428223 C229.8942421 22.41670418 229.8942421 22.41670418 229.91882324 23.84745789 C229.96345374 28.12799236 230.00435132 32.40837386 230.02737427 36.68908691 C230.0439109 38.94212184 230.07117034 41.19510481 230.10940552 43.44787598 C230.16437318 46.70506874 230.18608084 49.96103282 230.20071411 53.21862793 C230.22338348 54.21786789 230.24605286 55.21710785 230.26940918 56.24662781 C230.24715144 63.67131294 228.4353373 68.61540093 223.16345215 73.91667175 C216.00552148 80.16898251 208.98634656 80.54458584 199.86080933 80.53485107 C198.98477468 80.5378222 198.10874003 80.54079332 197.20615888 80.54385448 C194.27692535 80.55251135 191.34773284 80.55404717 188.41848755 80.55554199 C186.31562717 80.56017227 184.21276763 80.56519721 182.10990906 80.57058716 C176.40109761 80.58369229 170.69229791 80.59015235 164.98347378 80.59459782 C161.41506989 80.59753137 157.84666919 80.6016367 154.27826691 80.60610199 C143.10832635 80.61977147 131.93839312 80.62944102 120.76844478 80.63330388 C107.88388322 80.63778449 94.99942775 80.65533494 82.11489844 80.68430448 C72.14867173 80.70593314 62.18247484 80.71600878 52.21622491 80.717345 C46.26687809 80.7183921 40.31763108 80.72427995 34.36830902 80.74216461 C28.7704542 80.75866586 23.17277399 80.76079074 17.57490349 80.7520256 C15.52469604 80.75125636 13.47447911 80.75558309 11.42429543 80.76548386 C-12.00003158 80.87193773 -12.00003158 80.87193773 -19.69772339 75.14440918 C-24.68229483 69.92247719 -27.41426187 64.48019154 -27.4838562 57.21179199 C-27.49346375 56.39704407 -27.50307129 55.58229614 -27.51296997 54.74285889 C-27.51934479 53.43342316 -27.51934479 53.43342316 -27.52584839 52.09753418 C-27.5343985 50.73613312 -27.5343985 50.73613312 -27.54312134 49.347229 C-27.55255822 47.42742066 -27.55910011 45.50759622 -27.56295776 43.58776855 C-27.57264228 40.6688566 -27.60366938 37.75065538 -27.63522339 34.83190918 C-27.6417562 32.96212167 -27.64700558 31.09232915 -27.65084839 29.22253418 C-27.66319519 28.35767395 -27.67554199 27.49281372 -27.68826294 26.60174561 C-27.66147729 19.21735507 -26.12331996 12.8045948 -21.13522339 7.08190918 C-20.6054187 6.44640137 -20.07561401 5.81089355 -19.52975464 5.15612793 C-13.66521697 0.47487751 -7.1976997 -0.04600017 0 0 Z " fill="#000000" transform="translate(282.3227233886719,242.6055908203125)"/>
<path d="M0 0 C1.29509491 -0.00953201 2.59018982 -0.01906403 3.92453003 -0.02888489 C5.32615181 -0.02862341 6.7277736 -0.0276861 8.12939453 -0.02612305 C9.58139162 -0.03001516 11.03338757 -0.03435088 12.48538208 -0.03910828 C15.52316992 -0.04655187 18.56084151 -0.04629304 21.59863281 -0.04101562 C25.4742861 -0.03522713 29.34946052 -0.05214563 33.22503471 -0.0753603 C36.22265361 -0.09015767 39.22015881 -0.09096116 42.21780777 -0.08785057 C43.6458239 -0.08836089 45.07384687 -0.0935439 46.50182724 -0.10366249 C63.29362488 -0.20804634 63.29362488 -0.20804634 69.66455078 5.2121582 C70.21240234 5.8927832 70.76025391 6.5734082 71.32470703 7.2746582 C71.89060547 7.9552832 72.45650391 8.6359082 73.03955078 9.3371582 C76.33357199 14.07291043 75.38720703 16.9098141 75.38720703 23.2746582 C42.71720703 23.2746582 10.04720703 23.2746582 -23.61279297 23.2746582 C-22.37240835 10.87081205 -22.37240835 10.87081205 -15.73779297 4.5246582 C-10.66288316 0.87072314 -6.18263168 0.02509697 0 0 Z " fill="#000000" transform="translate(357.61279296875,207.725341796875)"/>
</svg>
