<?xml version="1.0" encoding="UTF-8"?>
<svg version="1.1" xmlns="http://www.w3.org/2000/svg" width="512" height="512">
<path d="M0 0 C1.83408378 -0.00599219 3.66816504 -0.01279932 5.50224304 -0.02035522 C10.45852087 -0.0379422 15.41472955 -0.04270723 20.37103558 -0.0439868 C23.46973826 -0.04541196 26.56842354 -0.04968824 29.66712189 -0.05498123 C40.4826824 -0.07345024 51.29819377 -0.08165489 62.11376953 -0.08007812 C72.18979236 -0.07887434 82.26560182 -0.10003119 92.34157062 -0.13156545 C101.00337567 -0.15770661 109.66511087 -0.16844648 118.32695508 -0.16716731 C123.49590659 -0.16665747 128.66466788 -0.17235398 133.83358002 -0.19352341 C138.68956089 -0.21287186 143.54516917 -0.21305356 148.4011631 -0.19849014 C150.18214524 -0.19639743 151.96315054 -0.20113041 153.74409294 -0.21321106 C156.17665617 -0.22864317 158.60793093 -0.21937024 161.04046631 -0.20394897 C161.74377539 -0.2142361 162.44708448 -0.22452323 163.17170596 -0.23512208 C170.83383404 -0.1278855 175.04481532 4.29172722 180.20953369 9.45214844 C180.7196096 9.95910437 181.22968551 10.4660603 181.75521827 10.98837852 C183.45030308 12.67553397 185.13820566 14.3696897 186.82617188 16.06396484 C188.04505772 17.28013865 189.2643682 18.49588701 190.48406982 19.71124268 C193.78595042 23.00402432 197.08149596 26.30307829 200.37565327 29.60358429 C203.82570643 33.05870803 207.28064461 36.50894145 210.73480225 39.95996094 C216.5318825 45.75340562 222.32473953 51.551048 228.11523438 57.35107422 C234.81097761 64.05771147 241.51390924 70.75709951 248.22060037 77.4527874 C253.9806532 83.20376799 259.73680402 88.95863229 265.48970389 94.71676826 C268.92493026 98.15511335 272.36149529 101.59209116 275.80158234 105.02557373 C279.03349069 108.25170984 282.26047687 111.48268956 285.48371124 114.71749115 C286.66797348 115.90440017 287.8539452 117.08960631 289.04173279 118.27298737 C290.66125175 119.88705054 292.27449899 121.50713278 293.8862915 123.12890625 C294.79107365 124.03444244 295.69585579 124.93997864 296.62805557 125.87295532 C300.01564275 129.65418935 301.04350172 132.31335346 301.04842091 137.38197136 C301.0542531 138.41587026 301.06008529 139.44976915 301.06609422 140.51499832 C301.0623149 141.64940892 301.05853557 142.78381952 301.05464172 143.9526062 C301.05846727 145.15896103 301.06229282 146.36531586 301.06623429 147.6082269 C301.07477901 150.95850336 301.07432623 154.30856081 301.0700537 157.65883112 C301.06759068 161.27188942 301.07659574 164.88492174 301.08409119 168.49797058 C301.0968554 175.57946304 301.09862946 182.66091762 301.09629092 189.74241965 C301.09450829 195.50260174 301.09625625 201.26277232 301.10051537 207.02295303 C301.10111055 207.84265124 301.10170574 208.66234945 301.10231897 209.506887 C301.10353074 211.17218962 301.10474487 212.83749225 301.10596135 214.50279488 C301.11684506 230.13150418 301.1146714 245.76019192 301.1085765 261.38890244 C301.1034156 275.66700774 301.11463941 289.94504464 301.13367472 304.22313641 C301.15308193 318.89315809 301.1613035 333.56314748 301.15755147 348.23318207 C301.15564264 356.46527042 301.15809518 364.69730067 301.17226601 372.92937851 C301.18421812 379.94361275 301.18554256 386.95775322 301.17347584 393.97198884 C301.16761176 397.5463823 301.16641825 401.12060457 301.17847824 404.69498634 C301.19144268 408.58294504 301.18081271 412.47064824 301.16816711 416.35861206 C301.1755414 417.47071545 301.18291568 418.58281883 301.19051343 419.72862232 C301.06845198 437.68206515 295.64717973 453.47566079 282.79394531 466.29052734 C269.71142311 477.40771901 255.49790804 481.610379 238.52474976 481.55795288 C236.88727891 481.56474955 236.88727891 481.56474955 235.21672785 481.57168353 C231.58145316 481.58428085 227.94632918 481.58271015 224.31103516 481.58105469 C221.69515797 481.58704289 219.07928254 481.59384911 216.46340942 481.60140991 C210.10798653 481.61796712 203.75260074 481.62351708 197.39715807 481.62463467 C192.22590385 481.62558778 187.05466178 481.62971117 181.88341141 481.63603592 C167.19307971 481.65363495 152.50277715 481.66287704 137.81243484 481.66137497 C136.62644903 481.6612551 136.62644903 481.6612551 135.41650391 481.66113281 C134.22905474 481.66101017 134.22905474 481.66101017 133.0176167 481.66088505 C120.19942244 481.66007283 107.38134587 481.67919797 94.56318562 481.70740955 C81.37327868 481.7362081 68.183429 481.74994598 54.99348986 481.74822199 C47.59976961 481.74756043 40.2061727 481.75294945 32.81248093 481.77457809 C25.85367761 481.79480548 18.89513774 481.79404528 11.93632126 481.77954483 C9.39196389 481.77746272 6.84759004 481.78212167 4.3032608 481.79426575 C-18.14345065 481.89440737 -36.78066024 480.0623237 -53.88574219 463.86474609 C-63.9707782 452.6761287 -69.31675979 438.67131723 -69.34027576 423.67794991 C-69.34262799 423.03592676 -69.34498022 422.39390361 -69.34740373 421.73242521 C-69.35405255 419.58438645 -69.35363676 417.43640875 -69.35322571 415.2883606 C-69.35652691 413.73128508 -69.36025302 412.17421042 -69.36436719 410.61713684 C-69.37436632 406.34038498 -69.37810062 402.06364715 -69.3807565 397.78688526 C-69.3846658 393.17313862 -69.39424377 388.55940302 -69.40296936 383.94566345 C-69.42271705 372.80375703 -69.43279826 361.66184973 -69.44169715 350.51993018 C-69.44608321 345.26905274 -69.45144923 340.0181763 -69.45668602 334.76729965 C-69.47369731 317.30498273 -69.48819027 299.84266642 -69.49543476 282.38034248 C-69.49734456 277.8504041 -69.49926491 273.32046571 -69.5012207 268.79052734 C-69.50170444 267.66467432 -69.50218818 266.5388213 -69.50268658 265.37885152 C-69.51098236 247.15117268 -69.5363121 228.92355956 -69.56880138 210.6959094 C-69.60190741 191.96907537 -69.61988676 173.2422747 -69.623079 154.51541126 C-69.62524091 144.00625652 -69.63394277 133.4971976 -69.65954018 122.98807144 C-69.68129568 114.03572218 -69.68927381 105.08349202 -69.67957339 96.13111933 C-69.67504261 91.56810192 -69.67684336 87.00532998 -69.69633484 82.44234657 C-69.71406743 78.25471925 -69.71288791 74.06751464 -69.69743755 69.8798822 C-69.69507667 68.375071 -69.69930493 66.87022974 -69.7112662 65.36546423 C-69.85078138 46.63471985 -65.4941701 30.26044639 -52.35839844 16.31787109 C-37.20236294 2.04204093 -19.85375999 -0.01298062 0 0 Z M-37.20605469 35.29052734 C-42.52067299 42.73839151 -45.45183422 49.73962173 -45.46332359 59.00888443 C-45.46682967 59.65018266 -45.47033574 60.29148089 -45.47394806 60.95221239 C-45.48321976 63.091785 -45.47834984 65.23108289 -45.47348022 67.3706665 C-45.47721863 68.92392025 -45.4818209 70.47717212 -45.48721087 72.03042102 C-45.49943286 76.29178379 -45.49918135 80.55306801 -45.49682212 84.8144443 C-45.49641375 89.41308725 -45.50745503 94.01170508 -45.51693726 98.6103363 C-45.53354391 107.61748817 -45.53904665 116.62461386 -45.54016201 125.63177976 C-45.54111266 132.95417725 -45.54522378 140.27656611 -45.55156326 147.59896088 C-45.56917487 168.36413413 -45.57840228 189.12928672 -45.57690232 209.8944675 C-45.5768224 211.01371706 -45.57674249 212.13296661 -45.57666016 213.28613281 C-45.57657839 214.40675066 -45.57649663 215.5273685 -45.57641239 216.68194446 C-45.57559955 234.84180994 -45.59473707 253.00159247 -45.62293689 271.16143396 C-45.65167084 289.81256928 -45.6654769 308.46366414 -45.66374934 327.11482215 C-45.66308561 337.58411395 -45.66857052 348.05331879 -45.69010544 358.52259064 C-45.70832394 367.43663765 -45.71265905 376.35055828 -45.69908659 385.26461586 C-45.69256031 389.81081394 -45.69242746 394.3567696 -45.70979309 398.90294456 C-45.72554391 403.06930788 -45.72263983 407.23523698 -45.70522483 411.40158984 C-45.70215934 412.90426011 -45.70577027 414.40696296 -45.71694498 415.9095948 C-45.8072727 428.92347398 -43.82387946 438.58413682 -34.56933594 448.12646484 C-25.77601992 456.17852613 -16.89607605 457.59521941 -5.28884888 457.55122375 C-4.21101131 457.5550493 -3.13317375 457.55887485 -2.02267444 457.56281632 C1.57754445 457.57310895 5.17760274 457.56916122 8.77783203 457.56518555 C11.36374051 457.56953408 13.9496477 457.5747177 16.53555298 457.58067322 C22.82373538 457.59339989 29.11187504 457.59521645 35.40006815 457.59287295 C40.51325954 457.59108734 45.62643799 457.59284464 50.73962784 457.5970974 C51.46835206 457.59769259 52.19707628 457.59828777 52.94788305 457.598901 C54.42846146 457.6001128 55.90903988 457.60132693 57.38961829 457.60254338 C71.26373557 457.61341111 85.13782853 457.61126007 99.01194717 457.60515853 C111.6920385 457.59999018 124.372053 457.61124401 137.05212913 457.63025675 C150.08600099 457.64964949 163.11983651 457.65788862 176.15372288 457.6541335 C183.46565539 457.65222362 190.7775225 457.65468821 198.08944321 457.66884804 C204.96609246 457.68203066 211.84258562 457.67948232 218.71923447 457.66643715 C221.24030611 457.66407179 223.76138858 457.66680457 226.28244781 457.67506027 C229.72940055 457.68553244 233.1758378 457.67742265 236.62277222 457.66474915 C237.61539719 457.67212343 238.60802217 457.67949772 239.6307267 457.68709546 C251.15614863 457.59822424 259.53816374 454.47093805 267.73925781 446.36865234 C274.04517228 439.56143087 276.92116272 432.63916268 276.91699314 423.28680706 C276.91898419 422.29801766 276.92097524 421.30922826 276.92302662 420.29047555 C276.91865736 418.67228715 276.91865736 418.67228715 276.91419983 417.02140808 C276.91505425 415.86965774 276.91590868 414.71790741 276.916789 413.53125554 C276.91815094 410.33869492 276.91502705 407.14617494 276.91001093 403.95361912 C276.90569154 400.5092304 276.90715392 397.06484355 276.90791321 393.62045288 C276.9084375 387.65423827 276.9053006 381.6880346 276.89967537 375.72182274 C276.89154753 367.09568785 276.88894383 358.46955825 276.88768738 349.84341995 C276.88549888 335.84800288 276.87884427 321.85259164 276.86938477 307.85717773 C276.86020542 294.26212595 276.85312714 280.66707574 276.84887695 267.07202148 C276.84861423 266.23398934 276.84835151 265.3959572 276.84808082 264.53253015 C276.84677578 260.32835931 276.84551207 256.12418846 276.84426892 251.9200176 C276.8339026 217.04351669 276.81628978 182.16702256 276.79394531 147.29052734 C275.88098694 147.2846611 274.96802856 147.27879486 274.02740479 147.27275085 C265.37788213 147.21458603 256.72861119 147.14237511 248.07933426 147.05481243 C243.63380026 147.01029116 239.18835407 146.97099609 234.74267578 146.9440918 C230.44363992 146.91787519 226.14494534 146.87734669 221.84612274 146.82734108 C220.21492544 146.8107954 218.58366928 146.79920523 216.95240021 146.79291344 C199.09358417 146.71713498 183.30146842 143.46724828 169.92285156 130.70458984 C155.51175376 114.36319821 153.72452344 96.66652843 153.47753906 75.65771484 C153.45692221 74.16984544 153.43592467 72.68198126 153.41456604 71.19412231 C153.35983312 67.31120081 153.31021246 63.42823082 153.26171875 59.54522705 C153.21114342 55.56965917 153.15564702 51.59416018 153.10058594 47.61865234 C152.99360269 39.8426693 152.89202943 32.06662828 152.79394531 24.29052734 C130.70562792 24.17354141 108.61736188 24.08546448 86.52879715 24.03146648 C76.27185945 24.00572387 66.01511464 23.97064892 55.75830078 23.91333008 C46.81474668 23.86337419 37.87133234 23.83120769 28.92764258 23.82008487 C24.19532191 23.8135867 19.46340093 23.79839695 14.7312088 23.76187706 C10.26928637 23.72772468 5.80792505 23.71751287 1.34588432 23.72498894 C-0.28423941 23.72362293 -1.91438356 23.71380553 -3.54439354 23.69449997 C-16.03929264 23.55387749 -28.6058321 25.17261842 -37.20605469 35.29052734 Z M176.79394531 41.29052734 C176.69168835 48.4579638 176.62212361 55.62520895 176.57421875 62.79321289 C176.55422709 65.22655263 176.52702457 67.65984509 176.4921875 70.09301758 C175.67198936 93.20291229 175.67198936 93.20291229 185.73535156 113.35302734 C196.25748767 123.25621427 208.46236963 124.45662583 222.19628906 124.38818359 C223.27399063 124.38676865 224.3516922 124.3853537 225.46205139 124.38389587 C228.8852116 124.37832345 232.30830506 124.36577602 235.73144531 124.35302734 C238.06022041 124.34800878 240.38899653 124.3434465 242.71777344 124.33935547 C248.40985404 124.32836305 254.1018928 124.31124563 259.79394531 124.29052734 C255.46598087 119.11852775 250.92634642 114.2794772 246.15209961 109.51928711 C245.41155838 108.77699356 244.67101715 108.03470001 243.90803528 107.26991272 C241.48057311 104.83807924 239.04950761 102.409886 236.61816406 99.98193359 C234.92505008 98.28814565 233.23208454 96.59420931 231.53926086 94.90013123 C228.00297578 91.36237595 224.46489814 87.8264259 220.92553711 84.29174805 C216.3778001 79.74973416 211.83460203 75.20321071 207.29271221 70.65535069 C203.80397042 67.16300728 200.3128652 63.67303434 196.82102394 60.18379021 C195.14365948 58.50709477 193.46704289 56.82965085 191.79117393 55.15146065 C189.45945819 52.81722213 187.12459028 50.48618454 184.78881836 48.15600586 C184.09118378 47.45634705 183.39354919 46.75668823 182.67477417 46.03582764 C182.04259476 45.40646805 181.41041534 44.77710846 180.75907898 44.12867737 C180.20734355 43.57731896 179.65560812 43.02596056 179.08715343 42.45789433 C177.96058916 41.17884943 177.96058916 41.17884943 176.79394531 41.29052734 Z " fill="#000000" transform="translate(136.2060546875,15.70947265625)"/>
<path d="M0 0 C0.80544498 -0.00644889 1.61088997 -0.01289778 2.44074237 -0.0195421 C3.3199164 -0.01644489 4.19909042 -0.01334769 5.10490608 -0.01015663 C6.04330743 -0.01468774 6.98170878 -0.01921886 7.94854653 -0.02388728 C11.10066116 -0.03657227 14.25260392 -0.03490826 17.40474129 -0.03325844 C19.66157949 -0.03924111 21.91841565 -0.04604604 24.1752491 -0.05361366 C30.31159395 -0.07130701 36.44788304 -0.07597044 42.58425093 -0.07724524 C47.70366829 -0.07914258 52.82307262 -0.08649818 57.94248497 -0.09358943 C69.32870842 -0.10895241 80.71489729 -0.11492621 92.10112761 -0.11357872 C92.78429864 -0.11349881 93.46746967 -0.1134189 94.17134285 -0.11333656 C95.19735114 -0.11321392 95.19735114 -0.11321392 96.24408688 -0.1130888 C107.32993044 -0.11227586 118.41563815 -0.13141558 129.50144242 -0.1596133 C140.88535702 -0.18834072 152.26918474 -0.20178739 163.653144 -0.20042574 C170.04395508 -0.19991529 176.43461243 -0.20564454 182.82539177 -0.22678185 C188.83528098 -0.24611617 194.84486905 -0.24632146 200.85476875 -0.23174858 C203.06145987 -0.22965345 205.2681696 -0.23440306 207.47482872 -0.2464695 C210.48566639 -0.26186795 213.49545868 -0.25264914 216.50627327 -0.23720741 C217.38098585 -0.24749454 218.25569843 -0.25778167 219.15691745 -0.26838052 C224.5631187 -0.20704285 227.6309354 0.67634583 231.93257332 4.25726891 C234.31151457 7.28501232 234.2984626 10.50515508 234.17866707 14.29633141 C233.80258163 17.29307568 232.89198941 18.97128346 230.93257332 21.25726891 C225.77399256 24.53982069 221.51304072 24.68602184 215.60238838 24.64494896 C214.67115086 24.6503345 213.73991333 24.65572003 212.78045648 24.66126877 C209.66444183 24.67556011 206.54885129 24.66844162 203.43281746 24.66132164 C201.19700974 24.66702457 198.96120494 24.67398853 196.72540474 24.68211937 C190.65519376 24.70007407 184.58512715 24.69887803 178.51489758 24.69317698 C173.44766142 24.69008856 168.38045312 24.69617372 163.31322092 24.70221573 C150.67610002 24.71707028 138.03906615 24.71344104 125.40195178 24.70135242 C114.43330189 24.69142016 103.46482069 24.70436121 92.49619681 24.72828662 C81.22634489 24.75268338 69.95656949 24.76188445 58.68668455 24.75563389 C52.36239093 24.75226117 46.0382367 24.75470051 39.71396255 24.77188492 C33.7672286 24.78733801 27.82081705 24.78341634 21.87409592 24.76457977 C19.6920166 24.76088944 17.50991348 24.76401523 15.32785606 24.77446556 C12.34811201 24.78764632 9.36943983 24.77615325 6.3897419 24.75847435 C5.52708829 24.76807936 4.66443469 24.77768436 3.77564007 24.78758043 C-1.9761282 24.71740897 -5.32226603 23.54550946 -10.06742668 20.25726891 C-12.47706855 17.32379185 -12.4854434 14.02919457 -12.38773918 10.28851891 C-11.85386532 6.90297733 -10.2601657 4.81546443 -8.06742668 2.25726891 C-5.29404476 0.56951575 -3.2286406 0.00655509 0 0 Z " fill="#000000" transform="translate(141.06742668151855,299.74273109436035)"/>
<path d="M0 0 C1.41985268 -0.00913666 1.41985268 -0.00913666 2.86838925 -0.01845789 C6.04821431 -0.03514051 9.22764125 -0.03030451 12.40750122 -0.0255127 C14.68404559 -0.03284998 16.96058623 -0.04143521 19.23712158 -0.05117798 C25.42720562 -0.07343903 31.61715672 -0.07632233 37.8072753 -0.07443047 C42.97143464 -0.07431097 48.1355656 -0.08286657 53.29971707 -0.09120798 C66.17846516 -0.11156021 79.05711539 -0.11258608 91.93587019 -0.10540086 C103.11874749 -0.09982604 114.30139566 -0.1206477 125.48421942 -0.15376133 C136.96759267 -0.18750089 148.45081236 -0.2021917 159.93424428 -0.1980443 C166.38097467 -0.19597405 172.82747692 -0.20149888 179.27416611 -0.22593689 C185.33664663 -0.2481582 191.39864958 -0.24636418 197.46113205 -0.22600937 C199.68717314 -0.22259113 201.9132461 -0.22772324 204.13924408 -0.24199295 C207.17656036 -0.26012116 210.21224548 -0.24748333 213.24951172 -0.22705078 C214.1320062 -0.23956863 215.01450067 -0.25208648 215.92373741 -0.26498365 C220.13471998 -0.20418324 222.91730769 0.08624651 226.28312874 2.74575043 C229.22882596 5.90629191 229.68530504 7.49754394 230.0017395 11.76940918 C229.68241284 16.39964576 228.36500606 18.69200107 225.22038078 22.01038361 C221.42149048 24.14020351 217.7893083 23.81456325 213.503479 23.78881836 C212.08362633 23.79795501 212.08362633 23.79795501 210.63508976 23.80727625 C207.45526469 23.82395887 204.27583776 23.81912287 201.09597778 23.81433105 C198.81943341 23.82166834 196.54289277 23.83025357 194.26635742 23.83999634 C188.07627338 23.86225739 181.88632228 23.86514069 175.69620371 23.86324883 C170.53204437 23.86312933 165.3679134 23.87168493 160.20376194 23.88002634 C147.32501385 23.90037856 134.44636362 23.90140444 121.56760882 23.89421922 C110.38473151 23.8886444 99.20208334 23.90946605 88.01925959 23.94257969 C76.53588633 23.97631924 65.05266664 23.99101006 53.56923473 23.98686266 C47.12250434 23.9847924 40.67600209 23.99031724 34.2293129 24.01475525 C28.16683238 24.03697656 22.10482943 24.03518254 16.04234695 24.01482773 C13.81630586 24.01140948 11.59023291 24.0165416 9.36423492 24.03081131 C6.32691864 24.04893952 3.29123352 24.03630169 0.25396729 24.01586914 C-0.62852719 24.02838699 -1.51102167 24.04090484 -2.4202584 24.05380201 C-6.63124098 23.9930016 -9.41382869 23.70257185 -12.77964973 21.04306793 C-15.72534695 17.88252645 -16.18182604 16.29127442 -16.4982605 12.01940918 C-16.17893384 7.3891726 -14.86152706 5.09681729 -11.71690178 1.77843475 C-7.91801148 -0.35138515 -4.28582929 -0.02574489 0 0 Z " fill="#000000" transform="translate(145.24826049804688,386.6055908203125)"/>
<path d="M0 0 C1.11591019 -0.01134979 2.23182037 -0.02269958 3.38154602 -0.03439331 C4.60138687 -0.03146271 5.82122772 -0.0285321 7.07803345 -0.0255127 C9.0102903 -0.03821701 9.0102903 -0.03821701 10.98158264 -0.05117798 C14.51268544 -0.07339464 18.0435549 -0.07632456 21.574718 -0.07443047 C24.52445884 -0.07431075 27.47415027 -0.08287531 30.42387736 -0.09120798 C37.38463871 -0.11044316 44.34528014 -0.11332573 51.30606079 -0.10656738 C58.48167738 -0.09992847 65.65677968 -0.12278412 72.83229196 -0.15988111 C78.99720131 -0.19059428 85.16194538 -0.20193636 91.32692969 -0.1980443 C95.00710578 -0.19597817 98.68688181 -0.20143398 102.36698532 -0.22593689 C106.47283623 -0.25237122 110.57760413 -0.23846404 114.6835022 -0.2208252 C115.89929459 -0.23408844 117.11508698 -0.24735168 118.36772156 -0.26101685 C127.55041102 -0.16924478 127.55041102 -0.16924478 131.24932861 2.80786133 C134.61065859 6.65345187 134.90165747 9.08766574 134.86953735 14.06628418 C134.26471957 17.98445154 132.34139478 19.69799734 129.51016235 22.39440918 C126.95073368 23.67412351 125.12758053 23.53186042 122.26083374 23.54830933 C121.14767288 23.55690979 120.03451202 23.56551025 118.88761902 23.57437134 C117.04707191 23.58076126 117.04707191 23.58076126 115.16934204 23.58728027 C113.88146286 23.59545776 112.59358368 23.60363525 111.26667786 23.61206055 C106.98848566 23.63828653 102.71028366 23.65358996 98.43203735 23.66784668 C96.9593022 23.67320636 95.48656711 23.67858386 94.01383209 23.68397903 C87.88710758 23.70560971 81.7603857 23.72434591 75.63363266 23.73560143 C66.85379516 23.75183692 58.0744005 23.78500223 49.29472995 23.84200227 C43.12139847 23.88071404 36.94818536 23.90023562 30.77473569 23.90552199 C27.0877792 23.90917419 23.40129495 23.92118002 19.71446991 23.95362473 C15.5988995 23.98932267 11.48427933 23.98533145 7.36856079 23.97790527 C6.14962631 23.99431061 4.93069183 24.01071594 3.67481995 24.02761841 C-5.53425345 23.95949072 -5.53425345 23.95949072 -9.23098755 21.04544067 C-12.73678608 16.93096565 -12.85424835 13.67836437 -12.48983765 8.39440918 C-9.79908792 2.47475977 -6.4804084 0.02492871 0 0 Z " fill="#000000" transform="translate(141.48983764648438,213.6055908203125)"/>
</svg>
