<?xml version="1.0" encoding="UTF-8"?>
<svg version="1.1" xmlns="http://www.w3.org/2000/svg" width="512" height="512">
<path d="M0 0 C0.74698179 -0.00265183 1.49396358 -0.00530365 2.26358119 -0.00803584 C4.78067094 -0.0157295 7.29771192 -0.01628804 9.81481266 -0.01688576 C11.63216259 -0.02090035 13.44951163 -0.02533857 15.26685959 -0.03016531 C20.27221919 -0.04213726 25.27756915 -0.04778072 30.28294027 -0.05234647 C35.6771768 -0.05830028 41.07140178 -0.06991075 46.46563053 -0.08063698 C59.4993609 -0.10516713 72.5330951 -0.11978959 85.56684145 -0.13269705 C89.24805315 -0.13640871 92.92926446 -0.14038197 96.61047578 -0.14444971 C119.46869421 -0.16968734 142.32691323 -0.19174121 165.18514252 -0.20417786 C170.48064965 -0.20710757 175.77615677 -0.21006923 181.07166386 -0.21308327 C182.38784354 -0.21382932 183.70402323 -0.21457537 185.06008715 -0.21534403 C206.37770006 -0.22799552 227.69521259 -0.26121535 249.01278996 -0.3028851 C270.89793009 -0.34531362 292.78302751 -0.36887401 314.66820866 -0.37409842 C326.95633484 -0.37751162 339.24433065 -0.38925614 351.53241634 -0.42220116 C361.99859391 -0.45021543 372.46461439 -0.4611949 382.93082654 -0.4500057 C388.26916785 -0.44482253 393.60718024 -0.44768392 398.94547367 -0.47247124 C403.83808051 -0.494999 408.73012283 -0.49419628 413.6227398 -0.47526737 C415.387316 -0.47247231 417.15193077 -0.47803823 418.91644507 -0.4930803 C434.69485853 -0.61930104 446.57050812 2.60746298 458.31311893 13.71904564 C465.86785086 21.72160962 469.79695422 31.64924155 469.77825832 42.49577045 C469.78091015 43.24275225 469.78356198 43.98973404 469.78629416 44.75935164 C469.79398782 47.2764414 469.79454636 49.79348238 469.79514408 52.31058311 C469.79915867 54.12793305 469.80359689 55.94528209 469.80842364 57.76263005 C469.82039558 62.76798965 469.82603904 67.77333961 469.83060479 72.77871072 C469.8365586 78.17294725 469.84816907 83.56717224 469.8588953 88.96140099 C469.88342545 101.99513136 469.89804792 115.02886555 469.91095537 128.06261191 C469.91466703 131.7438236 469.91864029 135.42503492 469.92270803 139.10624623 C469.94794567 161.96446466 469.96999954 184.82268368 469.98243618 207.68091297 C469.9853659 212.97642011 469.98832756 218.27192722 469.99134159 223.56743431 C469.99208764 224.883614 469.99283369 226.19979369 469.99360235 227.55585761 C470.00625384 248.87347051 470.03947367 270.19098305 470.08114342 291.50856041 C470.12357194 313.39370054 470.14713234 335.27879796 470.15235674 357.16397911 C470.15576994 369.45210529 470.16751446 381.7401011 470.20045948 394.0281868 C470.22847375 404.49436437 470.23945322 414.96038484 470.22826402 425.42659699 C470.22308086 430.7649383 470.22594225 436.10295069 470.25072956 441.44124413 C470.27325733 446.33385097 470.2724546 451.22589328 470.25352569 456.11851025 C470.25073064 457.88308645 470.25629655 459.64770122 470.27133863 461.41221552 C470.39755937 477.19062899 467.17079535 489.06627858 456.05921268 500.80888939 C448.05664871 508.36362132 438.12901678 512.29272467 427.28248787 512.27402878 C426.53550608 512.2766806 425.78852429 512.27933243 425.01890668 512.28206462 C422.50181692 512.28975827 419.98477595 512.29031682 417.46767521 512.29091454 C415.65032528 512.29492913 413.83297624 512.29936734 412.01562828 512.30419409 C407.01026868 512.31616603 402.00491872 512.3218095 396.9995476 512.32637525 C391.60531107 512.33232905 386.21108609 512.34393953 380.81685734 512.35466576 C367.78312697 512.37919591 354.74939277 512.39381837 341.71564642 512.40672582 C338.03443472 512.41043749 334.35322341 512.41441075 330.67201209 512.41847849 C307.81379366 512.44371612 284.95557464 512.46576999 262.09734535 512.47820663 C256.80183822 512.48113635 251.5063311 512.48409801 246.21082401 512.48711205 C244.23655448 512.48823112 244.23655448 512.48823112 242.22240072 512.4893728 C220.90478781 512.5020243 199.58727528 512.53524413 178.26969791 512.57691388 C156.38455778 512.61934239 134.49946036 512.64290279 112.61427921 512.6481272 C100.32615303 512.6515404 88.03815722 512.66328492 75.75007153 512.69622993 C65.28389396 512.72424421 54.81787348 512.73522368 44.35166133 512.72403447 C39.01332002 512.71885131 33.67530763 512.7217127 28.3370142 512.74650002 C23.44440736 512.76902778 18.55236504 512.76822506 13.65974807 512.74929614 C11.89517187 512.74650109 10.1305571 512.75206701 8.3660428 512.76710908 C-7.41237067 512.89332982 -19.28802025 509.6665658 -31.03063107 498.55498314 C-38.58536299 490.55241916 -42.51446635 480.62478723 -42.49577045 469.77825832 C-42.49842228 469.03127653 -42.50107411 468.28429474 -42.50380629 467.51467714 C-42.51149995 464.99758738 -42.51205849 462.4805464 -42.51265621 459.96344566 C-42.5166708 458.14609573 -42.52110902 456.32874669 -42.52593577 454.51139873 C-42.53790771 449.50603913 -42.54355117 444.50068917 -42.54811692 439.49531806 C-42.55407073 434.10108153 -42.5656812 428.70685654 -42.57640743 423.31262779 C-42.60093758 410.27889742 -42.61556005 397.24516323 -42.6284675 384.21141687 C-42.63217916 380.53020518 -42.63615242 376.84899386 -42.64022017 373.16778255 C-42.6654578 350.30956412 -42.68751167 327.45134509 -42.69994831 304.59311581 C-42.70287803 299.29760867 -42.70583969 294.00210156 -42.70885372 288.70659447 C-42.7099728 286.73232494 -42.7099728 286.73232494 -42.71111448 284.71817117 C-42.72376597 263.40055827 -42.7569858 242.08304573 -42.79865555 220.76546837 C-42.84108407 198.88032824 -42.86464447 176.99523081 -42.86986887 155.11004966 C-42.87328207 142.82192348 -42.88502659 130.53392768 -42.91797161 118.24584198 C-42.94598589 107.77966441 -42.95696535 97.31364394 -42.94577615 86.84743179 C-42.94059299 81.50909048 -42.94345438 76.17107809 -42.96824169 70.83278465 C-42.99076946 65.94017781 -42.98996673 61.0481355 -42.97103782 56.15551852 C-42.96824277 54.39094232 -42.97380868 52.62632755 -42.98885076 50.86181325 C-43.1150715 35.08339979 -39.88830748 23.2077502 -28.77672482 11.46513939 C-20.77416084 3.91040746 -10.84652891 -0.0186959 0 0 Z M-7.17125607 34.57451439 C-15.10654376 43.87013712 -12.35875607 52.08313548 -12.35875607 65.13701439 C136.80124393 65.13701439 285.96124393 65.13701439 439.64124393 65.13701439 C440.99852707 49.25415098 440.99852707 49.25415098 435.20374393 35.32451439 C429.35570057 30.33228224 424.97794085 30.01253222 417.45502758 30.00837994 C416.73886184 30.0066269 416.0226961 30.00487386 415.28482836 30.0030677 C412.87864072 29.99840589 410.47251346 30.00087367 408.06632328 30.00330162 C406.3263306 30.00143374 404.58633833 29.99913313 402.84634674 29.9964363 C398.05968885 29.99030907 393.27304841 29.99045298 388.48638749 29.99163067 C383.32609966 29.99183445 378.16581748 29.98631819 373.00553226 29.9815731 C362.89386902 29.97326108 352.78221161 29.97051802 342.67054524 29.96996073 C334.45323614 29.96948585 326.23592898 29.96743255 318.01862049 29.9642601 C294.73118291 29.95545224 271.44374995 29.95084096 248.15631069 29.95159058 C246.27254161 29.95165051 246.27254161 29.95165051 244.35071659 29.95171165 C243.09334084 29.95175254 241.83596508 29.95179342 240.54048704 29.95183554 C220.15656802 29.95224211 199.77266746 29.94267013 179.38875379 29.92857329 C158.46864081 29.91421955 137.54853684 29.90730254 116.6284188 29.90816706 C104.87934043 29.90849937 93.13028141 29.90573768 81.38120747 29.89498901 C71.37897494 29.88589722 61.37677055 29.8836979 51.37453569 29.89049844 C46.26994238 29.89377025 41.16540308 29.89379652 36.06081486 29.88514519 C31.38891386 29.8773085 26.71710997 29.87868255 22.04521142 29.88742932 C20.35413 29.88897056 18.66304143 29.88712477 16.97196843 29.88156924 C14.67424203 29.87452004 12.37685733 29.87979414 10.07914257 29.88812542 C8.16429143 29.88779937 8.16429143 29.88779937 6.21075642 29.88746673 C0.88127591 30.26005525 -3.09599035 31.04261743 -7.17125607 34.57451439 Z M-12.35875607 95.13701439 C-12.40000607 156.37263939 -12.44125607 217.60826439 -12.48375607 280.69951439 C-12.50196407 300.05680199 -12.52017208 319.41408958 -12.53893185 339.35796165 C-12.54561944 356.66319049 -12.54561944 356.66319049 -12.54964352 373.96842003 C-12.55151181 381.6947914 -12.55886175 389.42113398 -12.56990719 397.14749718 C-12.58262117 406.05415511 -12.58843186 414.96078536 -12.58564597 423.86745244 C-12.58443903 428.42539455 -12.58637761 432.98327472 -12.59718633 437.54120553 C-12.6068985 441.66170637 -12.60741608 445.78210132 -12.60055828 449.90260696 C-12.59970916 451.39315495 -12.60225452 452.88370951 -12.60852122 454.37424457 C-12.61655751 456.40482009 -12.61102288 458.43543568 -12.60485172 460.46601772 C-12.60561116 461.59340738 -12.6063706 462.72079704 -12.60715306 463.88235003 C-12.21089958 469.07432943 -11.35932693 472.98250955 -7.92125607 476.94951439 C-2.0732127 481.94174653 2.30454702 482.26149655 9.82746029 482.26564884 C10.9017089 482.2682784 10.9017089 482.2682784 11.9976595 482.27096108 C14.40384715 482.27562289 16.80997441 482.27315511 19.21616459 482.27072716 C20.95615727 482.27259504 22.69614954 482.27489565 24.43614113 482.27759248 C29.22279902 482.2837197 34.00943946 482.2835758 38.79610038 482.2823981 C43.95638821 482.28219433 49.11667039 482.28771059 54.2769556 482.29245567 C64.38861885 482.3007677 74.50027626 482.30351076 84.61194263 482.30406805 C92.82925173 482.30454292 101.04655889 482.30659623 109.26386738 482.30976868 C132.55130496 482.31857654 155.83873792 482.32318781 179.12617718 482.3224382 C180.38202323 482.32239825 181.63786928 482.32235829 182.93177128 482.32231712 C184.18914703 482.32227624 185.44652278 482.32223536 186.74200083 482.32219324 C207.12591985 482.32178667 227.50982041 482.33135865 247.89373408 482.34545549 C268.81384706 482.35980923 289.73395103 482.36672624 310.65406907 482.36586171 C322.40314744 482.36552941 334.15220646 482.36829109 345.9012804 482.37903976 C355.90351293 482.38813156 365.90571732 482.39033088 375.90795217 482.38353034 C381.01254549 482.38025853 386.11708479 482.38023226 391.22167301 482.38888359 C395.89357401 482.39672028 400.5653779 482.39534623 405.23727645 482.38659946 C406.92835787 482.38505822 408.61944644 482.38690401 410.31051944 482.39245953 C412.60824584 482.39950874 414.90563054 482.39423464 417.2033453 482.38590336 C419.11819644 482.38622941 419.11819644 482.38622941 421.07173145 482.38656205 C426.40121196 482.01397352 430.37847821 481.23141135 434.45374393 477.69951439 C439.23705179 472.0962109 439.76671653 467.91610315 439.76429176 460.71211338 C439.76628263 459.40592611 439.76827351 458.09973885 439.77032471 456.75397015 C439.76747278 455.30704099 439.7645274 453.86011201 439.76149845 452.41318321 C439.76193593 450.87815902 439.76281294 449.34313491 439.76409245 447.80811119 C439.76633804 443.57976826 439.76231836 439.3514506 439.75731666 435.12311088 C439.7529558 430.49720304 439.75441089 425.87129641 439.75513458 421.24538708 C439.75566667 412.2621509 439.7510452 403.2789247 439.74463325 394.29569109 C439.7374396 383.9067383 439.73663885 373.51779151 439.73584843 363.12883568 C439.73059585 335.69406033 439.71663477 308.25928721 439.70374393 280.82451439 C439.68311893 219.54763939 439.66249393 158.27076439 439.64124393 95.13701439 C290.48124393 95.13701439 141.32124393 95.13701439 -12.35875607 95.13701439 Z " fill="#000000" transform="translate(42.35875606536865,-0.13701438903808594)"/>
<path d="M0 0 C1.10700805 -0.00843994 2.2140161 -0.01687988 3.35456985 -0.02557558 C4.56545259 -0.01956553 5.77633532 -0.01355549 7.02391148 -0.00736332 C8.95957339 -0.01544163 8.95957339 -0.01544163 10.93433958 -0.02368313 C14.51442885 -0.03815478 18.09428825 -0.03388774 21.6743902 -0.02651632 C25.53609759 -0.02179118 29.39775478 -0.03428868 33.25944614 -0.04453373 C40.82407872 -0.06173987 48.38862831 -0.062558 55.95327538 -0.05732083 C62.10109245 -0.05328131 68.24888496 -0.05472008 74.39670086 -0.06006908 C75.27130522 -0.06081751 76.14590959 -0.06156593 77.04701712 -0.06233703 C78.82370706 -0.06386849 80.60039701 -0.06540683 82.37708694 -0.066952 C99.04280976 -0.08068357 115.70848564 -0.0752347 132.37420738 -0.06376678 C147.6244187 -0.05383343 162.87450871 -0.06677567 178.12470131 -0.09070098 C193.78009302 -0.11507712 209.43542819 -0.12470352 225.09083849 -0.11804825 C233.88158353 -0.11455276 242.67223525 -0.11680983 251.46296597 -0.13429928 C258.94624584 -0.1490027 266.42936668 -0.14968112 273.91264337 -0.13222837 C277.73114851 -0.12370061 281.54936933 -0.12161178 285.36785984 -0.13687992 C289.5061277 -0.15322193 293.64370616 -0.13861531 297.78196812 -0.12088871 C298.99062013 -0.13049372 300.19927215 -0.14009872 301.44454998 -0.14999479 C307.553535 -0.09596226 311.81930254 -0.04646741 316.46643162 4.38031673 C320.25795848 8.79504823 319.89111269 13.36223195 319.85411167 18.90068722 C319.86218998 20.34632285 319.86218998 20.34632285 319.87043148 21.82116324 C319.88474823 25.05316885 319.87759806 28.28476705 319.87048435 31.51679134 C319.87618596 33.83289069 319.8831494 36.14898722 319.89128208 38.46507931 C319.90925151 44.75841421 319.90803798 51.05160997 319.9023397 57.34496284 C319.89925338 62.59615702 319.90533408 67.84732426 319.91137844 73.09851462 C319.92623841 86.19350509 319.92259968 99.28841727 319.91051514 112.38340748 C319.90058259 123.75371886 319.9135235 135.12386751 319.93744933 146.49415379 C319.96183683 158.17190842 319.97104926 169.84958049 319.9647966 181.52736002 C319.96142192 188.08246605 319.9638762 194.63743763 319.98104763 201.19252491 C319.9964878 207.35592346 319.99259346 213.51901076 319.97374249 219.68239689 C319.97004855 221.94552328 319.97318836 224.20867259 319.98362827 226.47177792 C319.99678437 229.55920068 319.98533775 232.64558487 319.96763706 235.73296261 C319.97724207 236.63033876 319.98684708 237.52771491 319.99674314 238.45228428 C319.93247158 243.8939494 319.20674803 247.14258828 315.46643162 251.38031673 C311.83853922 253.96731799 309.3683447 254.7558526 304.93286324 254.76063347 C303.82585518 254.76907341 302.71884713 254.77751335 301.57829338 254.78620905 C300.36741065 254.780199 299.15652791 254.77418896 297.90895176 254.76799679 C295.97328985 254.77607509 295.97328985 254.77607509 293.99852365 254.7843166 C290.41843438 254.79878825 286.83857499 254.79452121 283.25847304 254.78714979 C279.39676565 254.78242465 275.53510846 254.79492215 271.67341709 254.8051672 C264.10878451 254.82237334 256.54423493 254.82319147 248.97958786 254.81795429 C242.83177079 254.81391478 236.68397827 254.81535355 230.53616238 254.82070255 C229.66155801 254.82145097 228.78695365 254.8221994 227.88584612 254.8229705 C226.10915617 254.82450196 224.33246623 254.8260403 222.55577629 254.82758547 C205.89005348 254.84131704 189.2243776 254.83586817 172.55865585 254.82440025 C157.30844453 254.8144669 142.05835453 254.82740914 126.80816192 254.85133445 C111.15277022 254.87571059 95.49743505 254.88533699 79.84202474 254.87868172 C71.0512797 254.87518623 62.26062798 254.8774433 53.46989727 254.89493275 C45.9866174 254.90963617 38.50349656 254.91031459 31.02021987 254.89286184 C27.20171473 254.88433408 23.3834939 254.88224525 19.5650034 254.89751339 C15.42673553 254.9138554 11.28915707 254.89924877 7.15089512 254.88152218 C5.9422431 254.89112719 4.73359109 254.90073219 3.48831326 254.91062826 C-2.62067176 254.85659573 -6.88643931 254.80710088 -11.53356838 250.38031673 C-15.32509524 245.96558524 -14.95824945 241.39840152 -14.92124844 235.85994625 C-14.92663397 234.89618916 -14.93201951 233.93243208 -14.93756825 232.93947023 C-14.95188499 229.70746462 -14.94473482 226.47586642 -14.93762112 223.24384212 C-14.94332272 220.92774278 -14.95028616 218.61164625 -14.95841885 216.29555416 C-14.97638827 210.00221926 -14.97517474 203.7090235 -14.96947646 197.41567063 C-14.96639014 192.16447645 -14.97247085 186.91330921 -14.97851521 181.66211885 C-14.99337517 168.56712838 -14.98973644 155.47221619 -14.9776519 142.37722599 C-14.96771935 131.00691461 -14.98066027 119.63676596 -15.00458609 108.26647968 C-15.0289736 96.58872505 -15.03818602 84.91105298 -15.03193337 73.23327345 C-15.02855868 66.67816741 -15.03101296 60.12319584 -15.04818439 53.56810856 C-15.06362457 47.40471 -15.05973022 41.24162271 -15.04087925 35.07823658 C-15.03718532 32.81511019 -15.04032513 30.55196088 -15.05076504 28.28885555 C-15.06392113 25.20143278 -15.05247451 22.1150486 -15.03477383 19.02767086 C-15.04437883 18.13029471 -15.05398384 17.23291856 -15.06387991 16.30834919 C-14.99960834 10.86668407 -14.2738848 7.61804519 -10.53356838 3.38031673 C-6.90567599 0.79331548 -4.43548147 0.00478087 0 0 Z M15.46643162 30.38031673 C15.46643162 71.96031673 15.46643162 113.54031673 15.46643162 156.38031673 C23.79916787 149.23797138 31.92370984 141.89122813 40.00427341 134.46747494 C43.94650827 130.84844652 47.9211699 127.26709007 51.90393162 123.69281673 C54.77243899 121.10416374 57.62086199 118.49410211 60.46643162 115.88031673 C61.9782664 114.4945085 63.49038128 113.10900652 65.00256443 111.72357845 C66.41726892 110.425429 67.82863095 109.12363989 69.23986912 107.82172298 C71.62274204 105.64278964 74.03434941 103.50398272 76.46643162 101.38031673 C77.41518162 100.53469173 78.36393162 99.68906673 79.34143162 98.81781673 C84.34929315 96.51420043 89.06668592 96.45893156 94.46643162 97.38031673 C97.6535607 98.87781533 99.93726126 100.95590492 102.46643162 103.38031673 C104.06950223 104.81903893 105.67374065 106.25646061 107.27893162 107.69281673 C108.54736912 108.85297298 108.54736912 108.85297298 109.84143162 110.03656673 C112.42572142 112.34396834 115.07699911 114.52498717 117.77893162 116.69281673 C122.58535991 120.57727853 127.10201734 124.69612665 131.60778904 128.91840267 C135.9917686 133.0026846 140.53668249 136.80572433 145.22424412 140.54047298 C147.09325923 142.07410734 148.80044799 143.63266725 150.46643162 145.38031673 C153.41722157 144.05092072 155.48618088 142.60622849 157.76109409 140.31270504 C158.3904285 139.68322964 159.01976292 139.05375423 159.66816807 138.40520382 C160.34723713 137.71580212 161.02630619 137.02640041 161.7259531 136.31610775 C162.45002354 135.58911678 163.17409397 134.86212582 163.92010593 134.11310482 C165.49103541 132.53456698 167.05965012 130.95372292 168.62621975 129.37085819 C171.10577487 126.86578568 173.59151609 124.36700566 176.0789957 121.86980343 C182.2561541 115.66589413 188.4224405 109.45121395 194.58911228 103.23688412 C199.79958425 97.98696228 205.01411843 92.74114024 210.23414898 87.50072193 C212.68275793 85.03914803 215.12526317 82.57162507 217.56761265 80.10384274 C219.07061653 78.59357284 220.57390246 77.08358357 222.0775156 75.57392025 C222.75456043 74.88654278 223.43160526 74.19916531 224.1291666 73.49095821 C229.16003271 68.45897006 232.97425442 64.95237874 240.40393162 64.94281673 C245.63377906 65.10265315 248.53190888 65.72029558 252.46643162 69.38031673 C254.21977397 71.24539169 255.89957025 73.14859176 257.54846287 75.10687923 C259.63599419 77.58130536 261.79264517 79.9814013 263.96643162 82.38031673 C266.65626593 85.36094394 269.32953526 88.35276906 271.96643162 91.38031673 C274.65400842 94.46165479 277.36441617 97.52129948 280.09143162 100.56781673 C280.80557224 101.36574642 281.51971287 102.16367611 282.25549412 102.98578548 C284.59102907 105.51526062 287.03199452 107.94587963 289.46643162 110.38031673 C289.46643162 83.98031673 289.46643162 57.58031673 289.46643162 30.38031673 C199.04643162 30.38031673 108.62643162 30.38031673 15.46643162 30.38031673 Z M239.46643162 102.38031673 C239.07935693 102.76923501 238.69228224 103.15815329 238.29347801 103.55885696 C228.86741287 113.02912326 219.43572761 122.49376036 209.99798393 131.95238876 C205.43410064 136.5267112 200.87209733 141.10287631 196.31433201 145.68329525 C191.91615203 150.10319863 187.51311096 154.51820504 183.10665035 158.92985249 C181.42598542 160.61421405 179.74708241 162.30033557 178.06997204 163.98823643 C175.72148893 166.35122744 173.3668312 168.70789534 171.01062107 171.06317806 C170.31794132 171.76304836 169.62526157 172.46291866 168.91159153 173.18399715 C163.91392097 178.16040948 160.01410353 181.79812135 152.65393162 181.94281673 C146.11993368 181.74360948 143.0766684 179.80579212 138.46643162 175.38031673 C136.69609109 173.77560623 134.92521887 172.17148217 133.15393162 170.56781673 C131.74820896 169.27037533 131.74820896 169.27037533 130.31408787 167.94672298 C127.63834326 165.53524945 124.90079737 163.25853439 122.09143162 161.00531673 C117.88827289 157.61644517 113.90451879 154.06781418 109.96643162 150.38031673 C103.12001168 143.973174 96.00433106 137.96845928 88.46643162 132.38031673 C83.10533921 137.18395042 77.7669861 142.01006872 72.46643162 146.88031673 C68.01308555 150.97198768 63.52983307 155.0285462 59.02893162 159.06781673 C56.16042753 161.65646677 53.31166511 164.26616819 50.46643162 166.88031673 C46.01713638 170.96824789 41.53856112 175.02174003 37.04065037 179.05609798 C33.1415246 182.57655296 29.28294793 186.14071549 25.42346287 189.70453548 C22.15930301 192.65823364 18.80880581 195.51542457 15.46643162 198.38031673 C15.46643162 206.96031673 15.46643162 215.54031673 15.46643162 224.38031673 C105.88643162 224.38031673 196.30643162 224.38031673 289.46643162 224.38031673 C297.06480223 162.3790152 297.06480223 162.3790152 276.46643162 143.38031673 C272.71643162 139.13031673 272.71643162 139.13031673 271.13830662 137.30219173 C269.10885089 134.96926599 267.03878461 132.67520428 264.96643162 130.38031673 C262.27659731 127.39968953 259.60332798 124.40786441 256.96643162 121.38031673 C254.27885482 118.29897868 251.56844706 115.23933399 248.84143162 112.19281673 C247.77022068 110.9959222 247.77022068 110.9959222 246.67736912 109.77484798 C244.33788455 107.24109526 241.91068198 104.81269199 239.46643162 102.38031673 Z " fill="#000000" transform="translate(103.53356838226318,128.61968326568604)"/>
<path d="M0 0 C2.42317102 1.35055574 4.27181196 2.78382186 6.28125 4.6875 C8.169415 6.40460907 8.169415 6.40460907 12 6 C13.78211135 4.68718943 13.78211135 4.68718943 15.5 3 C19.95165705 -0.51797617 23.65802849 -0.75877021 29.22265625 -0.45703125 C33.02075216 0.16797187 35.21334698 1.35625227 38 4 C41.87821631 9.4707206 41.98373212 14.49025962 41 21 C39.63151755 24.30560372 37.49696739 26.46829219 35 29 C34.47937988 29.5451123 33.95875977 30.09022461 33.42236328 30.65185547 C19.32163351 45.40897831 19.32163351 45.40897831 13.16796875 46.50390625 C7.06523063 46.62388144 2.92824146 46.34635663 -1.72265625 42.24609375 C-2.47417969 41.50488281 -3.22570312 40.76367188 -4 40 C-4.5451123 39.47937988 -5.09022461 38.95875977 -5.65185547 38.42236328 C-20.51955089 24.21597917 -20.51955089 24.21597917 -21.43359375 18.09765625 C-21.44150672 11.94928199 -21.4465054 7.68685704 -17 3 C-11.57938764 -0.84269438 -6.45844209 -1.08059537 0 0 Z " fill="#000000" transform="translate(110,409)"/>
<path d="M0 0 C0.9553212 -0.00524185 1.9106424 -0.0104837 2.89491272 -0.0158844 C4.91129588 -0.02229548 6.92771648 -0.02097945 8.9440918 -0.01245117 C12.02135136 -0.00394441 15.09675194 -0.0327104 18.17382812 -0.06445312 C20.1367182 -0.06606542 22.09961154 -0.06548706 24.0625 -0.0625 C24.9782933 -0.07373398 25.89408661 -0.08496796 26.83763123 -0.09654236 C32.42242311 -0.03592757 35.6836982 0.67705214 40.09765625 4.43359375 C44.15396023 9.65619232 43.87163169 15.08699517 43.09765625 21.43359375 C40.92566384 26.01891107 38.66797185 28.32118735 34.09765625 30.43359375 C30.79658987 30.88232281 27.52296445 30.87783099 24.1953125 30.8671875 C23.2399913 30.87242935 22.2846701 30.8776712 21.30039978 30.8830719 C19.28401662 30.88948298 17.26759602 30.88816695 15.2512207 30.87963867 C12.17396114 30.87113191 9.09856056 30.8998979 6.02148438 30.93164062 C4.0585943 30.93325292 2.09570096 30.93267456 0.1328125 30.9296875 C-0.7829808 30.94092148 -1.69877411 30.95215546 -2.64231873 30.96372986 C-8.22711061 30.90311507 -11.4883857 30.19013536 -15.90234375 26.43359375 C-19.95864773 21.21099518 -19.67631919 15.78019233 -18.90234375 9.43359375 C-14.77247362 0.71497903 -8.7903475 -0.02811592 0 0 Z " fill="#000000" transform="translate(299.90234375,416.56640625)"/>
<path d="M0 0 C0.9553212 -0.00524185 1.9106424 -0.0104837 2.89491272 -0.0158844 C4.91129588 -0.02229548 6.92771648 -0.02097945 8.9440918 -0.01245117 C12.02135136 -0.00394441 15.09675194 -0.0327104 18.17382812 -0.06445312 C20.1367182 -0.06606542 22.09961154 -0.06548706 24.0625 -0.0625 C24.9782933 -0.07373398 25.89408661 -0.08496796 26.83763123 -0.09654236 C32.42242311 -0.03592757 35.6836982 0.67705214 40.09765625 4.43359375 C44.15396023 9.65619232 43.87163169 15.08699517 43.09765625 21.43359375 C40.92566384 26.01891107 38.66797185 28.32118735 34.09765625 30.43359375 C30.79658987 30.88232281 27.52296445 30.87783099 24.1953125 30.8671875 C23.2399913 30.87242935 22.2846701 30.8776712 21.30039978 30.8830719 C19.28401662 30.88948298 17.26759602 30.88816695 15.2512207 30.87963867 C12.17396114 30.87113191 9.09856056 30.8998979 6.02148438 30.93164062 C4.0585943 30.93325292 2.09570096 30.93267456 0.1328125 30.9296875 C-0.7829808 30.94092148 -1.69877411 30.95215546 -2.64231873 30.96372986 C-8.22711061 30.90311507 -11.4883857 30.19013536 -15.90234375 26.43359375 C-19.95864773 21.21099518 -19.67631919 15.78019233 -18.90234375 9.43359375 C-14.77247362 0.71497903 -8.7903475 -0.02811592 0 0 Z " fill="#000000" transform="translate(203.90234375,416.56640625)"/>
</svg>
