<?xml version="1.0" encoding="UTF-8"?>
<svg version="1.1" xmlns="http://www.w3.org/2000/svg" width="512" height="512">
<path d="M0 0 C1.577476 -0.00761181 1.577476 -0.00761181 3.18682021 -0.0153774 C4.35128607 -0.01587516 5.51575194 -0.01637292 6.71550465 -0.01688576 C7.94550735 -0.02126801 9.17551005 -0.02565027 10.44278556 -0.03016531 C13.86803932 -0.04124791 17.2932473 -0.04778334 20.71851242 -0.05234647 C24.40849827 -0.05829594 28.0984672 -0.06990746 31.78844166 -0.08063698 C40.70576908 -0.10517677 49.62310212 -0.11979082 58.54045293 -0.13269705 C61.05844318 -0.13640795 63.57643288 -0.14038127 66.09442258 -0.14444971 C81.72504964 -0.16968615 97.35567755 -0.19174304 112.9863205 -0.20417786 C116.60811014 -0.20710764 120.22989976 -0.21006929 123.85168934 -0.21308327 C124.75188782 -0.21382932 125.65208631 -0.21457537 126.57956354 -0.21534403 C141.16325074 -0.22799846 155.74681605 -0.26122163 170.33044627 -0.3028851 C185.29755846 -0.34529415 200.26460823 -0.36887173 215.23178035 -0.37409842 C223.63755776 -0.37751381 232.04314471 -0.38928385 240.44886303 -0.42220116 C247.60757013 -0.4501888 254.76604774 -0.46120675 261.92480531 -0.4500057 C265.57742544 -0.44481556 269.22956492 -0.44772789 272.88211536 -0.47247124 C276.84280608 -0.49907798 280.80284008 -0.48691509 284.76360035 -0.47098732 C285.91691261 -0.48486941 287.07022486 -0.49875149 288.25848597 -0.51305425 C295.21822609 -0.44394681 298.88545154 0.37657601 304.0570116 5.13701439 C307.96811295 10.45696188 307.49787229 16.215454 307.48938465 22.55840111 C307.4995763 23.70044502 307.50976795 24.84248894 307.52026844 26.01914024 C307.55040528 29.78504399 307.55966577 33.55069338 307.56873035 37.31670189 C307.58557646 39.931304 307.6037266 42.54589801 307.62312794 45.16048241 C307.66673702 51.33325879 307.69531819 57.50600887 307.71845132 63.67889225 C307.7455331 70.70920533 307.78944268 77.73938214 307.83474004 84.76959777 C307.92750614 99.22533472 307.99700243 113.68110325 308.0570116 128.13701439 C317.6270116 127.80701439 327.1970116 127.47701439 337.0570116 127.13701439 C335.7370116 125.48701439 334.4170116 123.83701439 333.0570116 122.13701439 C331.43912613 117.28335798 331.11806439 111.9806831 332.74060535 107.06670189 C335.20675257 102.33906697 338.77978287 99.21220747 343.85687733 97.54651451 C346.68295318 97.02051098 349.38382675 96.98565273 352.25916004 96.96001244 C353.51436451 96.9471772 354.76956898 96.93434196 356.06280994 96.92111778 C357.43066479 96.9129487 358.79852413 96.90550529 360.1663866 96.89873314 C361.20503235 96.89261985 361.20503235 96.89261985 362.26466084 96.88638306 C365.93079291 96.86555716 369.59688795 96.85124126 373.26306629 96.84184837 C377.03348402 96.83079946 380.80330909 96.796408 384.5735178 96.75667667 C387.48705549 96.73042633 390.40045379 96.72214909 393.31409931 96.71856689 C394.70307124 96.71372151 396.0920378 96.70216637 397.48089314 96.6835289 C406.69136798 96.56762577 413.47215988 96.79347065 420.4320116 103.38701439 C425.15943013 111.38726113 424.3395279 120.57170926 424.31097889 129.54741478 C424.31328493 131.12429288 424.31646242 132.70116991 424.32043338 134.2780447 C424.32877027 138.59995556 424.32466112 142.92177791 424.31846094 147.24368906 C424.31393295 151.90905445 424.32092194 156.5744047 424.32642078 161.23976707 C424.3353127 170.37478856 424.33339366 179.50977718 424.3275955 188.64479995 C424.32307823 196.06921963 424.32246639 203.4936301 424.32464314 210.91805077 C424.3249496 211.97484506 424.32525607 213.03163935 424.32557182 214.12045771 C424.32621127 216.26733359 424.3268597 218.41420947 424.327517 220.56108534 C424.33321971 240.69102386 424.32666334 260.82094416 424.31591627 280.95087969 C424.30698082 298.22224361 424.30853287 315.49358064 424.31775379 332.76494408 C424.32845747 352.82299397 424.33267039 372.88102789 424.32652926 392.93908024 C424.32589217 395.07804616 424.32526343 397.21701209 424.32464314 399.35597801 C424.32433458 400.40838254 424.32402603 401.46078706 424.32370813 402.54508263 C424.32198149 409.96034349 424.32489564 417.37559421 424.32960224 424.7908535 C424.33521215 433.82790497 424.33369229 442.8649217 424.32304075 451.90196919 C424.31778555 456.51254199 424.31572477 461.12305686 424.32233906 465.73362923 C424.32830368 469.95520065 424.32501488 474.17666053 424.31438395 478.39822185 C424.31215212 479.9243588 424.31328137 481.45050519 424.31813553 482.97663605 C424.37499649 502.34076353 424.37499649 502.34076353 419.6820116 507.51201439 C415.79897252 511.39505348 413.21844266 512.38566432 407.75860596 512.39707661 C406.67858942 512.4041422 405.59857289 512.41120779 404.48582858 512.41848749 C403.29995176 512.4160724 402.11407494 512.41365732 400.89226246 512.41116905 C399.63196604 512.41640573 398.37166962 512.42164241 397.0731824 512.42703778 C393.57262645 512.44122996 390.07215923 512.44288084 386.57157862 512.44244087 C382.7970916 512.444088 379.02264125 512.45715254 375.24817371 512.46863365 C366.99407212 512.49149047 358.73999622 512.49940492 350.48586726 512.5044601 C345.33251833 512.50771618 340.17917688 512.5142381 335.02583218 512.52146149 C320.75901721 512.54102792 306.49220919 512.557432 292.22537994 512.56033802 C290.85574426 512.56061938 290.85574426 512.56061938 289.45843916 512.56090641 C287.60736613 512.56127267 285.75629309 512.56163636 283.90522005 512.56199753 C282.9863391 512.56218034 282.06745814 512.56236315 281.12073231 512.5625515 C279.74072963 512.56282232 279.74072963 512.56282232 278.33284811 512.56309862 C263.42272328 512.56664089 248.51274282 512.59366641 233.60266807 512.63104939 C218.29648192 512.66911859 202.99036743 512.68849539 187.68413287 512.68879753 C179.08948344 512.6893824 170.49500625 512.69789321 161.90040112 512.7267952 C154.58253335 512.75129052 147.26490064 512.75860454 139.94700297 512.74354767 C136.21336966 512.73637119 132.48020068 512.73726724 128.74661922 512.75995827 C124.69830758 512.78432636 120.65105549 512.76993353 116.60271168 512.75174522 C115.42352702 512.76494519 114.24434237 512.77814516 113.02942485 512.79174513 C106.01464533 512.71959678 102.24966829 511.97141583 97.0570116 507.13701439 C94.06066686 502.66921598 93.67535191 499.0763396 93.65295887 493.75810814 C93.64609562 493.04510551 93.63923237 492.33210289 93.63216114 491.59749413 C93.61395933 489.2562945 93.61772041 486.91576913 93.62341785 484.57451439 C93.61885331 482.9383631 93.61354692 481.30221373 93.60753345 479.66606712 C93.59861573 476.24321751 93.60101065 472.8206014 93.61096668 469.39775658 C93.62246304 465.01957898 93.60222844 460.64220714 93.57304955 456.26413536 C93.55467262 452.88741025 93.55498279 449.5108778 93.56068707 446.13411522 C93.56084005 444.52023245 93.55481425 442.90633644 93.54239559 441.29250145 C93.52745585 439.0331317 93.53818193 436.77524512 93.55530262 434.51592064 C93.55546879 433.23273949 93.55563496 431.94955833 93.55580616 430.6274929 C94.31050186 425.37166587 96.74347112 422.32240458 100.6195116 418.82451439 C104.84397218 415.89988783 109.04477193 415.46930928 114.0570116 416.13701439 C117.90558188 417.55916558 121.14870713 419.22870991 124.0570116 422.13701439 C124.3870116 416.85701439 124.7170116 411.57701439 125.0570116 406.13701439 C123.45865467 406.14811745 121.86029774 406.1592205 120.21350574 406.17066002 C105.14670501 406.27204122 90.08002978 406.34728324 75.01297474 406.39607525 C67.26693465 406.4218276 59.52114965 406.45692082 51.77527332 406.51421165 C45.02183736 406.56413817 38.26858618 406.59632699 31.51497078 406.60745686 C27.94078976 406.61396016 24.36713727 406.62918129 20.79312611 406.66566467 C16.79751885 406.70611867 12.80282314 406.70695794 8.8070116 406.70464134 C7.62952854 406.72261772 6.45204548 406.7405941 5.23888111 406.75911522 C-0.78088679 406.72137815 -5.15647333 406.20603049 -10.25060558 402.8944025 C-17.12283073 395.75821162 -16.50775806 388.17031101 -16.44419384 378.83341026 C-16.44808824 377.25596619 -16.4537298 375.67852564 -16.46096474 374.10109335 C-16.47571735 369.77296611 -16.46553938 365.44520276 -16.45122802 361.11708724 C-16.44012111 356.44695872 -16.45205987 351.77688135 -16.46107006 347.10675621 C-16.4750061 337.96086782 -16.46744379 328.81511746 -16.45239448 319.66923564 C-16.43553909 309.02070343 -16.43874402 298.37220565 -16.44248856 287.72366423 C-16.44836773 268.72592166 -16.43419291 249.72824536 -16.40954113 230.73052025 C-16.38561682 212.29136738 -16.37853812 193.85230304 -16.38903332 175.41313744 C-16.40043925 155.33789177 -16.40237686 135.26268705 -16.38793522 115.18744189 C-16.38640937 113.04737286 -16.38488901 110.90730383 -16.38337421 108.7672348 C-16.3826164 107.71425387 -16.38185859 106.66127293 -16.38107781 105.57638348 C-16.37633274 98.15167628 -16.37818798 90.72698735 -16.38243961 83.30228043 C-16.38736316 74.25634264 -16.38139571 65.21048861 -16.36154532 56.16457003 C-16.35166504 51.54815538 -16.34657617 46.93186834 -16.35443783 42.31544685 C-16.36148519 38.09079947 -16.3547122 33.86640978 -16.3368342 29.64179642 C-16.33278359 28.11230424 -16.33379984 26.58278864 -16.34035306 25.05330514 C-16.34849373 22.97575596 -16.33820384 20.89907715 -16.32330513 18.82158375 C-16.322276 17.66723125 -16.32124687 16.51287875 -16.32018656 15.32354587 C-15.81345508 11.04273015 -14.36312808 7.65833451 -11.40783215 4.49248314 C-7.22967746 1.29742368 -5.21348115 0.01331079 0 0 Z " fill="#59E4DF" transform="translate(54.94298839569092,-0.13701438903808594)"/>
<path d="M0 0 C84.81 0 169.62 0 257 0 C257 112.53 257 225.06 257 341 C172.19 341 87.38 341 0 341 C0 228.47 0 115.94 0 0 Z " fill="#FEFEFE" transform="translate(72,32)"/>
<path d="M0 0 C1.577476 -0.00761181 1.577476 -0.00761181 3.18682021 -0.0153774 C4.35128607 -0.01587516 5.51575194 -0.01637292 6.71550465 -0.01688576 C7.94550735 -0.02126801 9.17551005 -0.02565027 10.44278556 -0.03016531 C13.86803932 -0.04124791 17.2932473 -0.04778334 20.71851242 -0.05234647 C24.40849827 -0.05829594 28.0984672 -0.06990746 31.78844166 -0.08063698 C40.70576908 -0.10517677 49.62310212 -0.11979082 58.54045293 -0.13269705 C61.05844318 -0.13640795 63.57643288 -0.14038127 66.09442258 -0.14444971 C81.72504964 -0.16968615 97.35567755 -0.19174304 112.9863205 -0.20417786 C116.60811014 -0.20710764 120.22989976 -0.21006929 123.85168934 -0.21308327 C124.75188782 -0.21382932 125.65208631 -0.21457537 126.57956354 -0.21534403 C141.16325074 -0.22799846 155.74681605 -0.26122163 170.33044627 -0.3028851 C185.29755846 -0.34529415 200.26460823 -0.36887173 215.23178035 -0.37409842 C223.63755776 -0.37751381 232.04314471 -0.38928385 240.44886303 -0.42220116 C247.60757013 -0.4501888 254.76604774 -0.46120675 261.92480531 -0.4500057 C265.57742544 -0.44481556 269.22956492 -0.44772789 272.88211536 -0.47247124 C276.84280608 -0.49907798 280.80284008 -0.48691509 284.76360035 -0.47098732 C285.91691261 -0.48486941 287.07022486 -0.49875149 288.25848597 -0.51305425 C293.99785602 -0.4560646 298.05035848 -0.08300428 302.66498309 3.47870195 C306.42114867 7.95339199 307.43211394 12.08355921 307.43453503 17.82437706 C307.43889535 18.47446129 307.44325567 19.12454553 307.44774812 19.79432929 C307.45868537 21.96988788 307.44829007 24.14481017 307.43796253 26.320364 C307.44141971 27.89694321 307.44618468 29.47352001 307.45214427 31.05009174 C307.46467567 35.38041894 307.45847416 39.71054797 307.44918561 44.04087591 C307.44240423 48.71169921 307.45287183 53.38248817 307.46112537 58.05330467 C307.47447462 67.20264771 307.47157966 76.35191696 307.46288745 85.5012629 C307.45611601 92.93623921 307.45519185 100.37119482 307.4584589 107.80617332 C307.4589186 108.86381604 307.4593783 109.92145876 307.45985193 111.01115125 C307.46081109 113.15964167 307.46178373 115.30813208 307.4627697 117.45662248 C307.47132709 137.60939123 307.46148399 157.76211907 307.4453686 177.91488111 C307.43196511 195.2119278 307.43429311 212.5089141 307.44812489 229.8059597 C307.46417453 249.88595544 307.47050308 269.9659153 307.46128809 290.04591656 C307.46033243 292.18656285 307.45938932 294.32720915 307.4584589 296.46785545 C307.45799607 297.52113138 307.45753325 298.5744073 307.4570564 299.65960068 C307.45446466 307.08680356 307.45884146 314.51398372 307.46589756 321.94118309 C307.47430592 330.99079959 307.4720464 340.04033801 307.45605533 349.08994555 C307.44816368 353.70838198 307.44509624 358.32668817 307.45500278 362.94512367 C307.46393167 367.17165548 307.45904671 371.39793611 307.44307013 375.62444508 C307.43971466 377.15464248 307.44143358 378.68486102 307.44869749 380.21504486 C307.45780864 382.29354966 307.44847592 384.37119202 307.43453503 386.44965172 C307.43380444 388.18199358 307.43380444 388.18199358 307.4330591 389.94933224 C306.7088566 396.08825728 303.72496032 400.2289643 299.0570116 404.13701439 C293.28345151 406.81570487 287.34482215 406.42445425 281.11404896 406.41116905 C279.90175188 406.41640573 278.68945481 406.42164241 277.44042146 406.42703778 C274.08308802 406.43943347 270.72596416 406.44288162 267.3686223 406.44244087 C263.74479962 406.44409156 260.12101485 406.45716263 256.49721241 406.46863365 C248.57786216 406.49146121 240.65853875 406.49940151 232.73916006 406.5044601 C227.79316942 406.50771906 222.84718654 406.51424265 217.90120029 406.52146149 C204.20305158 406.54102276 190.50491007 406.55743031 176.80674648 406.56033802 C175.4925105 406.56061938 175.4925105 406.56061938 174.1517243 406.56090641 C172.37561123 406.56127266 170.59949815 406.56163636 168.82338507 406.56199753 C167.9417416 406.56218034 167.06009812 406.56236315 166.15173817 406.5625515 C164.82765652 406.56282232 164.82765652 406.56282232 163.47682576 406.56309862 C149.1688879 406.5666414 134.86110043 406.59367236 120.55321474 406.63104939 C105.85829684 406.66912996 91.16345358 406.68849547 76.46848524 406.68879753 C68.2197981 406.68938208 59.97129049 406.69787266 51.72264957 406.7267952 C44.70020026 406.75130551 37.67799598 406.75859428 30.65551545 406.74354767 C27.073632 406.73637778 23.49223246 406.73723887 19.91040325 406.75995827 C16.02470137 406.7843688 12.13968991 406.76991487 8.25394154 406.75174522 C7.12572534 406.76494519 5.99750915 406.77814516 4.83510458 406.79174513 C-1.98332949 406.7188666 -6.83555146 405.86715711 -11.9429884 401.13701439 C-17.4847591 394.72570613 -16.49891444 386.87127779 -16.44419384 378.83341026 C-16.44808824 377.25596619 -16.4537298 375.67852564 -16.46096474 374.10109335 C-16.47571735 369.77296611 -16.46553938 365.44520276 -16.45122802 361.11708724 C-16.44012111 356.44695872 -16.45205987 351.77688135 -16.46107006 347.10675621 C-16.4750061 337.96086782 -16.46744379 328.81511746 -16.45239448 319.66923564 C-16.43553909 309.02070343 -16.43874402 298.37220565 -16.44248856 287.72366423 C-16.44836773 268.72592166 -16.43419291 249.72824536 -16.40954113 230.73052025 C-16.38561682 212.29136738 -16.37853812 193.85230304 -16.38903332 175.41313744 C-16.40043925 155.33789177 -16.40237686 135.26268705 -16.38793522 115.18744189 C-16.38640937 113.04737286 -16.38488901 110.90730383 -16.38337421 108.7672348 C-16.3826164 107.71425387 -16.38185859 106.66127293 -16.38107781 105.57638348 C-16.37633274 98.15167628 -16.37818798 90.72698735 -16.38243961 83.30228043 C-16.38736316 74.25634264 -16.38139571 65.21048861 -16.36154532 56.16457003 C-16.35166504 51.54815538 -16.34657617 46.93186834 -16.35443783 42.31544685 C-16.36148519 38.09079947 -16.3547122 33.86640978 -16.3368342 29.64179642 C-16.33278359 28.11230424 -16.33379984 26.58278864 -16.34035306 25.05330514 C-16.34849373 22.97575596 -16.33820384 20.89907715 -16.32330513 18.82158375 C-16.322276 17.66723125 -16.32124687 16.51287875 -16.32018656 15.32354587 C-15.81345508 11.04273015 -14.36312808 7.65833451 -11.40783215 4.49248314 C-7.22967746 1.29742368 -5.21348115 0.01331079 0 0 Z M17.0570116 32.13701439 C17.0570116 144.66701439 17.0570116 257.19701439 17.0570116 373.13701439 C101.8670116 373.13701439 186.6770116 373.13701439 274.0570116 373.13701439 C274.0570116 260.60701439 274.0570116 148.07701439 274.0570116 32.13701439 C189.2470116 32.13701439 104.4370116 32.13701439 17.0570116 32.13701439 Z " fill="#262F61" transform="translate(54.94298839569092,-0.13701438903808594)"/>
<path d="M0 0 C1.25520447 -0.01283524 2.51040894 -0.02567047 3.8036499 -0.03889465 C5.17150475 -0.04706373 6.53936409 -0.05450714 7.90722656 -0.0612793 C8.94587231 -0.06739259 8.94587231 -0.06739259 10.00550079 -0.07362938 C13.67163286 -0.09445528 17.33772791 -0.10877117 21.00390625 -0.11816406 C24.77432398 -0.12921298 28.54414905 -0.16360444 32.31435776 -0.20333576 C35.22789545 -0.22958611 38.14129375 -0.23786335 41.05493927 -0.24144554 C42.4439112 -0.24629092 43.83287776 -0.25784607 45.22173309 -0.27648354 C54.43220793 -0.39238666 61.21299984 -0.16654179 68.17285156 6.42700195 C72.90027009 14.42724869 72.08036785 23.61169683 72.05181885 32.58740234 C72.05412489 34.16428045 72.05730238 35.74115748 72.06127334 37.31803226 C72.06961023 41.63994312 72.06550108 45.96176548 72.0593009 50.28367662 C72.0547729 54.94904201 72.0617619 59.61439226 72.06726074 64.27975464 C72.07615266 73.41477612 72.07423362 82.54976474 72.06843546 91.68478751 C72.06391819 99.10920719 72.06330635 106.53361767 72.06548309 113.95803833 C72.06578956 115.01483262 72.06609603 116.07162691 72.06641178 117.16044527 C72.06705123 119.30732115 72.06769966 121.45419703 72.06835696 123.60107291 C72.07405966 143.73101143 72.06750329 163.86093173 72.05675623 183.99086726 C72.04782077 201.26223117 72.04937283 218.53356821 72.05859375 235.80493164 C72.06929743 255.86298153 72.07351035 275.92101546 72.06736922 295.9790678 C72.06673213 298.11803372 72.06610338 300.25699965 72.06548309 302.39596558 C72.06517454 303.4483701 72.06486599 304.50077462 72.06454809 305.58507019 C72.06282145 313.00033105 72.0657356 320.41558178 72.0704422 327.83084106 C72.0760521 336.86789254 72.07453225 345.90490927 72.06388071 354.94195676 C72.0586255 359.55252955 72.05656473 364.16304443 72.06317902 368.77361679 C72.06914364 372.99518822 72.06585484 377.21664809 72.05522391 381.43820941 C72.05299207 382.96434636 72.05412133 384.49049276 72.05897549 386.01662362 C72.11583645 405.38075109 72.11583645 405.38075109 67.42285156 410.55200195 C63.53981248 414.43504104 60.95928262 415.42565188 55.49944592 415.43706417 C53.87942111 415.44766256 53.87942111 415.44766256 52.22666854 415.45847505 C51.04079172 415.45605997 49.8549149 415.45364488 48.63310242 415.45115662 C47.372806 415.45639329 46.11250958 415.46162997 44.81402236 415.46702534 C41.31346641 415.48121753 37.81299919 415.4828684 34.31241858 415.48242843 C30.53793156 415.48407556 26.76348121 415.4971401 22.98901367 415.50862122 C14.73491207 415.53147804 6.48083617 415.53939248 -1.77329278 415.54444766 C-6.92664171 415.54770374 -12.07998316 415.55422566 -17.23332787 415.56144905 C-31.50014283 415.58101549 -45.76695085 415.59741957 -60.0337801 415.60032558 C-60.94687056 415.60051315 -61.85996102 415.60070072 -62.80072088 415.60089398 C-64.65179392 415.60126023 -66.50286695 415.60162393 -68.35393999 415.60198509 C-69.27282094 415.6021679 -70.1917019 415.60235071 -71.13842773 415.60253906 C-72.51843041 415.60280989 -72.51843041 415.60280989 -73.92631193 415.60308618 C-88.83643676 415.60662846 -103.74641722 415.63365397 -118.65649197 415.67103695 C-133.96267812 415.70910616 -149.26879261 415.72848296 -164.57502717 415.7287851 C-173.1696766 415.72936996 -181.76415379 415.73788078 -190.35875893 415.76678276 C-197.67662669 415.79127808 -204.99425941 415.7985921 -212.31215707 415.78353523 C-216.04579038 415.77635876 -219.77895937 415.7772548 -223.51254082 415.79994583 C-227.56085246 415.82431392 -231.60810455 415.80992109 -235.65644836 415.79173279 C-237.42522535 415.81153274 -237.42522535 415.81153274 -239.2297352 415.83173269 C-246.24451471 415.75958434 -250.00949175 415.0114034 -255.20214844 410.17700195 C-258.19849318 405.70920355 -258.58380814 402.11632716 -258.60620117 396.7980957 C-258.61306442 396.08509308 -258.61992767 395.37209045 -258.6269989 394.63748169 C-258.64520071 392.29628206 -258.64143963 389.95575669 -258.63574219 387.61450195 C-258.64030674 385.97835066 -258.64561312 384.34220129 -258.65162659 382.70605469 C-258.66054431 379.28320508 -258.65814939 375.86058896 -258.64819336 372.43774414 C-258.63669701 368.05956654 -258.6569316 363.68219471 -258.6861105 359.30412292 C-258.70448742 355.92739782 -258.70417725 352.55086536 -258.69847298 349.17410278 C-258.69831999 347.56022002 -258.70434579 345.94632401 -258.71676445 344.33248901 C-258.7317042 342.07311927 -258.72097811 339.81523269 -258.70385742 337.5559082 C-258.70369125 336.27272705 -258.70352509 334.9895459 -258.70335388 333.66748047 C-257.94865818 328.41165343 -255.51568892 325.36239215 -251.63964844 321.86450195 C-247.40760677 318.93462695 -243.22112633 318.52507066 -238.20214844 319.17700195 C-233.5972484 320.75840001 -229.54711544 322.74761983 -227.20214844 327.17700195 C-221.29546672 344.8970471 -225.20214844 364.49843432 -225.20214844 383.17700195 C-138.41214844 382.84700195 -51.62214844 382.51700195 37.79785156 382.17700195 C38.12785156 267.00700195 38.45785156 151.83700195 38.79785156 33.17700195 C22.95785156 33.17700195 7.11785156 33.17700195 -9.20214844 33.17700195 C-15.14331878 30.20641678 -18.11551975 28.43688801 -20.20214844 22.17700195 C-20.93342796 15.3197579 -20.4079797 10.71099046 -16.20214844 5.17700195 C-10.74771686 0.85891029 -6.81214443 0.06074615 0 0 Z " fill="#252E5F" transform="translate(407.2021484375,96.822998046875)"/>
<path d="M0 0 C1.12157501 -0.0071553 2.24315002 -0.01431061 3.39871216 -0.02168274 C4.6350943 -0.02437164 5.87147644 -0.02706055 7.14532471 -0.02983093 C9.09177383 -0.03968773 9.09177383 -0.03968773 11.07754517 -0.04974365 C14.64382538 -0.06715924 18.21009218 -0.07770724 21.77640438 -0.08594918 C24.00467855 -0.0910989 26.23294856 -0.09717469 28.46121979 -0.10346031 C35.43335781 -0.12251524 42.40548524 -0.13674489 49.3776443 -0.14507228 C57.42488052 -0.15484235 65.4718415 -0.18115432 73.51898074 -0.22157317 C79.73902327 -0.25174221 85.95898695 -0.26654195 92.17910123 -0.26985329 C95.89392632 -0.27220319 99.60845747 -0.28115497 103.32320404 -0.30631447 C107.46981598 -0.33394452 111.61581405 -0.32976169 115.76251221 -0.32279968 C117.60494003 -0.34201477 117.60494003 -0.34201477 119.48458862 -0.36161804 C125.85434002 -0.32257473 129.91769155 -0.22820742 134.71270752 4.14717102 C138.73927164 8.60903937 140.08343891 11.9374363 139.99395752 18.02217102 C139.35141548 22.87693312 136.70168649 26.23055637 133.15020752 29.52217102 C129.45993742 31.98235108 126.67483 32.27526257 122.34312439 32.29434204 C121.22858887 32.30149734 120.11405334 32.30865265 118.96574402 32.31602478 C117.74230789 32.31871368 116.51887177 32.32140259 115.25836182 32.32417297 C113.32632401 32.33402977 113.32632401 32.33402977 111.35525513 32.34408569 C107.08249148 32.36510761 102.80972754 32.37548575 98.53692627 32.38545227 C97.06511733 32.38950041 95.59330857 32.39361735 94.12150002 32.39780235 C87.20703053 32.41684926 80.29257169 32.43108181 73.37808102 32.43941432 C65.39990449 32.44918782 57.42200532 32.4755121 49.44392651 32.51591522 C43.2748188 32.54608388 37.10579057 32.56088386 30.93661052 32.56419533 C27.25309838 32.56654483 23.56988274 32.57549176 19.88644981 32.60065651 C15.77586806 32.62828639 11.66590554 32.62410386 7.55523682 32.61714172 C6.33787338 32.62995178 5.12050995 32.64276184 3.86625671 32.65596008 C-2.4671572 32.61679867 -6.5394185 32.53044025 -11.28729248 28.14717102 C-15.33728649 22.78366544 -16.84946323 18.89322002 -16.28729248 12.14717102 C-13.39341909 4.61366366 -8.1173113 0.03545046 0 0 Z " fill="#262F61" transform="translate(134.28729248046875,239.8528289794922)"/>
<path d="M0 0 C1.94732529 -0.01051392 1.94732529 -0.01051392 3.93399048 -0.02124023 C7.48366454 -0.03942797 11.03287197 -0.03242529 14.58255386 -0.01972389 C18.30333939 -0.00957243 22.02408589 -0.01899551 25.74487305 -0.02526855 C31.99242297 -0.03253875 38.23978354 -0.02297389 44.48730469 -0.00390625 C51.70267379 0.01786146 58.91759073 0.01080963 66.13294888 -0.01121187 C72.33612396 -0.02938391 78.53916319 -0.03191544 84.7423563 -0.0214572 C88.44365916 -0.01523211 92.14474973 -0.01435928 95.84603882 -0.02760315 C99.97315092 -0.04134007 104.09948776 -0.02228273 108.2265625 0 C109.44856354 -0.00809692 110.67056458 -0.01619385 111.92959595 -0.02453613 C118.2803851 0.03901999 122.328436 0.16497205 127.11328125 4.51757812 C131.19470243 9.04023403 132.43692661 12.30904165 132.32421875 18.46289062 C131.83836183 23.19549696 129.59585539 26.29798621 126.11328125 29.33007812 C122.13668693 32.22967815 119.53429612 32.64364843 114.74369812 32.66474915 C113.6291626 32.67190445 112.51462708 32.67905975 111.36631775 32.68643188 C110.14288162 32.68912079 108.9194455 32.69180969 107.65893555 32.69458008 C105.72689774 32.70443687 105.72689774 32.70443687 103.75582886 32.7144928 C99.48306521 32.73551472 95.21030127 32.74589285 90.9375 32.75585938 C89.46569106 32.75990751 87.9938823 32.76402445 86.52207375 32.76820946 C79.60760426 32.78725637 72.69314543 32.80148891 65.77865475 32.80982143 C57.80047822 32.81959492 49.82257905 32.84591921 41.84450024 32.88632232 C35.67539253 32.91649099 29.5063643 32.93129097 23.33718425 32.93460244 C19.65367212 32.93695193 15.97045647 32.94589887 12.28702354 32.97106361 C8.17644179 32.99869349 4.06647927 32.99451096 -0.04418945 32.98754883 C-1.26155289 33.00035889 -2.47891632 33.01316895 -3.73316956 33.02636719 C-10.06658347 32.98720578 -14.13884477 32.90084736 -18.88671875 28.51757812 C-22.91281663 23.18571877 -24.54749044 19.23542368 -23.88671875 12.51757812 C-18.91127911 1.02259689 -11.60415585 -0.07688861 0 0 Z " fill="#262F61" transform="translate(141.88671875,93.482421875)"/>
<path d="M0 0 C1.12157501 -0.0071553 2.24315002 -0.01431061 3.39871216 -0.02168274 C4.6350943 -0.02437164 5.87147644 -0.02706055 7.14532471 -0.02983093 C9.09177383 -0.03968773 9.09177383 -0.03968773 11.07754517 -0.04974365 C14.64382538 -0.06715924 18.21009218 -0.07770724 21.77640438 -0.08594918 C24.00467855 -0.0910989 26.23294856 -0.09717469 28.46121979 -0.10346031 C35.43335781 -0.12251524 42.40548524 -0.13674489 49.3776443 -0.14507228 C57.42488052 -0.15484235 65.4718415 -0.18115432 73.51898074 -0.22157317 C79.73902327 -0.25174221 85.95898695 -0.26654195 92.17910123 -0.26985329 C95.89392632 -0.27220319 99.60845747 -0.28115497 103.32320404 -0.30631447 C107.46981598 -0.33394452 111.61581405 -0.32976169 115.76251221 -0.32279968 C117.60494003 -0.34201477 117.60494003 -0.34201477 119.48458862 -0.36161804 C125.85434002 -0.32257473 129.91769155 -0.22820742 134.71270752 4.14717102 C138.02935574 7.8223758 139.53701543 10.35511168 140.02520752 15.33467102 C139.53746055 21.28518407 137.47318546 25.47257005 133.15020752 29.58467102 C129.44456891 31.96008039 126.64926001 32.2753752 122.34312439 32.29434204 C121.22858887 32.30149734 120.11405334 32.30865265 118.96574402 32.31602478 C117.74230789 32.31871368 116.51887177 32.32140259 115.25836182 32.32417297 C113.32632401 32.33402977 113.32632401 32.33402977 111.35525513 32.34408569 C107.08249148 32.36510761 102.80972754 32.37548575 98.53692627 32.38545227 C97.06511733 32.38950041 95.59330857 32.39361735 94.12150002 32.39780235 C87.20703053 32.41684926 80.29257169 32.43108181 73.37808102 32.43941432 C65.39990449 32.44918782 57.42200532 32.4755121 49.44392651 32.51591522 C43.2748188 32.54608388 37.10579057 32.56088386 30.93661052 32.56419533 C27.25309838 32.56654483 23.56988274 32.57549176 19.88644981 32.60065651 C15.77586806 32.62828639 11.66590554 32.62410386 7.55523682 32.61714172 C6.33787338 32.62995178 5.12050995 32.64276184 3.86625671 32.65596008 C-2.4671572 32.61679867 -6.5394185 32.53044025 -11.28729248 28.14717102 C-15.33728649 22.78366544 -16.84946323 18.89322002 -16.28729248 12.14717102 C-13.39341909 4.61366366 -8.1173113 0.03545046 0 0 Z " fill="#262F61" transform="translate(134.28729248046875,166.8528289794922)"/>
</svg>
